<svg version="1.1" id="Layer_1" xmlns="http://www.w3.org/2000/svg" xmlns:xlink="http://www.w3.org/1999/xlink" x="0px" y="0px"
	 width="100%" viewBox="0 0 1024 1024" enable-background="new 0 0 1024 1024" xml:space="preserve">
<path fill="#FFFFFF" opacity="1.000000" stroke="none" 
	d="
M670.000000,1025.000000 
	C446.666656,1025.000000 223.833328,1025.000000 1.000000,1025.000000 
	C1.000000,683.666687 1.000000,342.333344 1.000000,1.000000 
	C342.333344,1.000000 683.666687,1.000000 1025.000000,1.000000 
	C1025.000000,342.333344 1025.000000,683.666687 1025.000000,1025.000000 
	C906.833313,1025.000000 788.666687,1025.000000 670.000000,1025.000000 
M633.903564,463.912384 
	C633.903564,463.912384 633.881409,463.771332 633.357117,463.966766 
	C633.153198,464.268036 632.949280,464.569305 632.893250,464.893341 
	C632.893250,464.893341 632.868469,464.745819 632.343018,464.942078 
	C632.130615,465.238647 631.918213,465.535217 631.835571,465.860779 
	C631.835571,465.860779 631.796753,465.733612 631.335999,465.883331 
	C631.335999,465.883331 631.051331,466.275360 630.486450,466.585327 
	C618.274292,477.090759 606.558044,488.252136 593.734314,497.948792 
	C574.191223,512.726318 553.881775,526.490234 533.390076,540.825562 
	C533.105286,541.020935 532.820496,541.216370 532.492615,541.505188 
	C532.492615,541.505188 532.395874,541.470215 531.859192,541.785339 
	C530.851074,542.486633 529.842896,543.187866 528.927673,543.916199 
	C528.927673,543.916199 528.919983,543.819763 528.217407,543.976257 
	C523.532043,546.575378 518.946350,549.385803 514.110962,551.666870 
	C512.245911,552.546753 509.813629,552.224365 507.519043,552.437134 
	C507.519043,552.437134 507.502441,552.316833 507.103729,551.755981 
	C504.010315,542.502808 500.916931,533.249695 497.874237,523.203491 
	C497.272308,520.802612 496.622925,518.412415 496.077789,515.998657 
	C494.715332,509.965851 493.400208,503.922333 492.048126,497.977783 
	C492.048126,497.977783 492.144470,497.979675 492.029114,497.248993 
	C491.582031,491.846252 491.134979,486.443481 490.778046,480.240875 
	C490.115051,472.489929 489.452026,464.738983 488.893829,456.183197 
	C488.781158,455.113831 488.668457,454.044464 488.740753,452.307373 
	C488.554077,451.419281 488.367401,450.531189 488.319214,448.759094 
	C488.255859,446.764954 488.145203,444.771027 488.136353,442.776642 
	C488.030273,418.853546 487.939331,394.930359 488.004364,370.132965 
	C488.338104,367.387878 488.870239,364.649994 488.969910,361.896454 
	C489.325073,352.085419 489.724548,342.269806 489.763367,332.454590 
	C489.918640,293.175385 489.994446,253.895660 489.961945,214.616257 
	C489.957367,209.081024 489.190521,203.546417 488.727539,197.400696 
	C487.969604,196.471481 487.211639,195.542282 486.371338,194.626633 
	C486.371338,194.626633 486.378326,194.543442 485.921326,193.999344 
	C483.945190,193.300415 481.983704,192.042450 479.990631,191.990265 
	C462.769867,191.539444 445.543243,191.142776 428.318939,191.165253 
	C425.394623,191.169083 422.472992,193.250488 419.477936,194.489716 
	C419.477936,194.489716 419.365936,194.570389 418.885712,194.886276 
	C418.497040,195.526901 418.108398,196.167511 417.875427,196.917999 
	C417.875427,196.917999 417.766174,196.761871 417.152954,197.141937 
	C416.490601,199.424149 415.828247,201.706360 415.010803,204.915939 
	C414.947296,234.594284 414.883759,264.272644 414.928894,293.957947 
	C414.928894,293.957947 414.910370,293.850647 414.192627,294.138428 
	C413.438934,294.433594 412.690582,294.743469 411.930695,295.021698 
	C397.289551,300.382782 382.647034,305.740173 367.301514,311.132599 
	C328.942657,329.969360 297.339600,356.893677 271.702454,390.966583 
	C249.140289,420.952728 233.862854,454.253357 225.930756,491.773712 
	C224.001175,507.516754 222.071609,523.259766 219.977829,539.927490 
	C220.024521,546.949341 220.071213,553.971191 219.981979,561.912170 
	C220.649216,580.577148 223.269653,598.953125 228.012787,617.748535 
	C228.032898,618.508240 228.052994,619.268005 227.687515,620.445068 
	C227.377869,620.910400 227.068222,621.375732 226.907562,621.871704 
	C226.907562,621.871704 226.888885,621.720764 226.085007,621.980164 
	C224.154709,622.303223 222.227875,622.879089 220.293503,622.905701 
	C211.675797,623.024292 203.049286,622.800171 194.440659,623.109558 
	C191.611328,623.211243 188.826355,624.547791 185.397583,625.584167 
	C184.259293,628.411316 182.203186,631.217590 182.138199,634.069214 
	C181.821060,647.988098 181.787445,661.927124 182.238281,675.840027 
	C182.349411,679.269409 184.649612,682.627808 186.230759,686.678772 
	C190.304047,687.781677 194.361954,689.764587 198.453262,689.836060 
	C216.877274,690.158264 235.311737,689.840332 253.739639,690.027588 
	C256.271210,690.053345 258.787140,691.617554 261.430908,692.538147 
	C261.430908,692.538147 261.489716,692.663818 261.760101,693.120117 
	C262.117859,693.483704 262.475616,693.847290 262.903473,694.090332 
	C262.903473,694.090332 262.781189,694.157349 262.901398,694.683594 
	C263.324463,695.254700 263.747498,695.825867 264.283600,696.674011 
	C264.283600,696.674011 264.514038,696.864868 264.804565,697.389160 
	C265.825317,698.651672 266.846039,699.914246 267.932678,701.067383 
	C267.932678,701.067383 267.818817,701.125183 267.960114,701.677307 
	C268.432159,702.263855 268.904236,702.850403 269.492981,703.523438 
	C269.492981,703.523438 269.584381,703.636230 269.676025,703.904785 
	C269.777191,704.072693 269.917511,704.196045 270.195984,704.667908 
	C270.195984,704.667908 270.533508,704.892334 270.801208,705.352966 
	C271.352753,706.041687 271.904327,706.730469 272.623108,707.341492 
	C272.623108,707.341492 272.506927,707.484680 272.757233,707.981934 
	C273.152618,708.352783 273.548004,708.723572 273.983124,709.023254 
	C273.983124,709.023254 273.903473,709.040588 274.033447,709.572266 
	C274.317230,709.782410 274.600983,709.992554 274.906799,710.106567 
	C274.906799,710.106567 274.813141,710.137207 275.000793,710.719116 
	C275.784058,711.641296 276.567291,712.563477 277.468109,713.539368 
	C277.468109,713.539368 277.514282,713.660034 277.824188,714.153137 
	C278.508118,714.823914 279.192017,715.494629 279.914154,716.073181 
	C279.914154,716.073181 279.817413,716.097839 279.979645,716.623779 
	C280.269470,716.829102 280.559296,717.034363 280.886322,717.126831 
	C280.886322,717.126831 280.781189,717.182068 280.996674,717.793457 
	C282.387726,719.342529 283.778778,720.891541 285.390320,722.846985 
	C285.390320,722.846985 285.835724,722.971375 285.913727,722.992249 
	C285.913727,722.992249 285.987854,723.119263 286.121429,723.637939 
	C286.277771,723.724121 286.434143,723.810242 286.838593,724.295227 
	C287.186371,724.582764 287.534149,724.870361 287.917633,725.068054 
	C287.917633,725.068054 287.823181,725.089050 288.011688,725.621033 
	C288.316925,725.827393 288.622162,726.033752 289.009033,726.662048 
	C289.147003,726.954224 289.377563,727.100830 289.916779,727.636292 
	C290.227417,727.846802 290.538055,728.057312 290.873779,728.153625 
	C290.873779,728.153625 290.763031,728.191101 291.004913,728.818054 
	C295.272980,732.959290 299.541077,737.100525 303.846558,741.139771 
	C303.846558,741.139771 303.741699,741.167969 303.942108,741.682129 
	C304.255920,741.860779 304.569733,742.039429 304.904968,742.101257 
	C304.904968,742.101257 304.788239,742.123413 304.976685,742.639343 
	C305.283325,742.825623 305.589996,743.011963 305.916962,743.104187 
	C305.916962,743.104187 305.824951,743.132507 305.977051,743.593628 
	C306.361023,743.884766 306.744965,744.175903 307.306458,744.728638 
	C307.306458,744.728638 307.590820,744.866577 307.943726,745.359314 
	C309.897614,746.988281 311.851471,748.617310 313.919312,750.087036 
	C313.919312,750.087036 313.762543,750.204468 313.927185,750.654968 
	C314.318512,750.928345 314.709869,751.201660 315.296295,751.759705 
	C315.296295,751.759705 315.616669,751.888000 315.906647,752.293274 
	C316.423920,752.695801 316.941223,753.098328 317.557983,753.476440 
	C317.557983,753.476440 317.561401,753.578796 317.928497,754.041870 
	C318.580780,754.472595 319.233032,754.903320 320.039337,755.747253 
	C320.268372,755.957886 320.538361,756.058044 321.125580,756.618042 
	C322.442993,757.569336 323.760406,758.520569 325.282013,759.766357 
	C325.282013,759.766357 325.618988,759.888550 325.990234,760.322815 
	C326.954132,760.939941 327.918030,761.557068 328.937286,762.067078 
	C328.937286,762.067078 328.830597,762.123230 329.132874,762.731262 
	C332.366760,764.913940 335.600677,767.096558 338.867737,769.171082 
	C338.867737,769.171082 338.762512,769.212585 339.112152,769.783142 
	C341.029572,770.921387 342.946991,772.059631 344.925262,773.074097 
	C344.925262,773.074097 344.811737,773.152466 345.159210,773.725342 
	C346.724731,774.570923 348.290222,775.416443 349.880035,776.156372 
	C349.880035,776.156372 349.778351,776.193848 350.135712,776.763062 
	C351.727722,777.572083 353.319702,778.381165 354.919800,779.097778 
	C354.919800,779.097778 354.832489,779.129150 355.195953,779.717468 
	C381.471008,794.561096 409.331268,805.136353 439.781586,811.045349 
	C451.190521,812.645325 462.599457,814.245239 474.502655,815.978516 
	C474.668091,815.936768 474.833557,815.894958 475.740784,816.007629 
	C476.495026,815.976990 477.249268,815.946411 478.799744,816.119019 
	C501.725189,817.773926 524.448120,816.178589 547.817627,811.975769 
	C549.090515,811.667114 550.354614,811.315063 551.637512,811.056274 
	C578.536011,805.629089 604.040344,796.416077 628.684570,782.872314 
	C658.684021,766.327759 684.723206,744.849243 707.171204,719.075623 
	C726.547424,696.828918 742.345032,672.230469 754.249329,644.377991 
	C757.937866,634.142822 761.792908,623.962097 765.168457,613.624756 
	C765.810791,611.657532 764.556763,609.071106 764.143555,606.879700 
	C764.143555,606.879700 764.255432,606.854980 764.056335,606.327148 
	C763.737793,606.145081 763.419189,605.963013 763.089600,605.893494 
	C763.089600,605.893494 763.197937,605.861023 762.741882,605.206726 
	C760.995422,604.797852 759.250610,604.041626 757.502258,604.033508 
	C739.426025,603.949097 721.346008,603.816711 703.275940,604.162720 
	C700.437256,604.217102 697.643127,606.594299 694.924072,607.918701 
	C694.924072,607.918701 694.886536,607.828247 694.289185,608.192810 
	C693.017090,611.109375 691.744995,614.025940 690.026245,617.555420 
	C687.932129,622.059692 685.953003,626.621765 683.725159,631.058899 
	C669.966064,658.462341 651.193115,681.926086 627.809875,701.705383 
	C621.225952,707.274597 619.116760,707.341248 612.072021,702.211670 
	C605.915527,697.728760 600.001465,692.912781 593.546143,687.993835 
	C593.385803,687.947083 593.225403,687.900330 593.048828,687.956604 
	C593.048828,687.956604 593.152954,687.952393 592.989136,687.423950 
	C592.734436,687.178650 592.479736,686.933411 592.185913,686.814880 
	C592.185913,686.814880 592.311340,686.771606 592.093445,686.267090 
	C591.780334,686.087585 591.467224,685.908081 591.125244,685.872314 
	C591.125244,685.872314 591.269287,685.844849 591.042786,685.323914 
	C590.721008,685.134705 590.399170,684.945496 589.979797,684.320190 
	C589.801147,684.041504 589.546509,683.911194 589.029175,683.460510 
	C588.638000,683.145264 588.246887,682.829956 587.685791,682.264038 
	C587.685791,682.264038 587.420837,682.117493 587.086975,681.657959 
	C585.992126,680.613953 584.897339,679.569946 583.652954,678.333008 
	C583.652954,678.333008 583.455933,678.188843 583.186584,677.800659 
	C582.729919,677.377136 582.273193,676.953674 581.662903,676.318420 
	C581.662903,676.318420 581.445679,676.172607 581.089478,675.690918 
	C579.749146,674.419189 578.408875,673.147522 577.053833,671.958801 
	C577.053833,671.958801 577.137878,671.952271 576.947876,671.437195 
	C576.646118,671.245422 576.344360,671.053589 576.038330,670.948975 
	C576.038330,670.948975 576.124146,670.933228 575.914124,670.366699 
	C575.319763,669.844299 574.725403,669.321960 574.114502,668.912109 
	C574.114502,668.912109 574.224731,668.883911 574.006104,668.306213 
	C573.396790,667.771729 572.787415,667.237305 572.145508,666.852722 
	C572.145508,666.852722 572.295349,666.819824 572.081604,666.221252 
	C570.983643,664.999817 569.885620,663.778320 568.651550,662.370178 
	C568.651550,662.370178 568.474731,662.221313 568.196533,661.804077 
	C567.834229,661.481567 567.471985,661.159058 567.063232,660.932800 
	C567.063232,660.932800 567.163025,660.894531 566.933533,660.268494 
	C565.336487,658.445923 563.739502,656.623352 562.099060,654.903931 
	C562.099060,654.903931 562.203186,654.862915 562.027588,654.286072 
	C561.280396,653.369141 560.533142,652.452209 559.646057,651.359314 
	C559.646057,651.359314 559.475830,651.212646 559.175232,650.745789 
	C558.601501,650.030334 558.027771,649.314880 556.997559,648.990845 
	C557.149048,648.859070 557.300476,648.727356 557.182190,647.966309 
	C554.496033,644.251770 551.809875,640.537292 549.098267,636.916809 
	C549.098267,636.916809 549.194580,636.901978 549.031128,636.219910 
	C547.399231,633.751038 545.767273,631.282166 544.102295,628.909119 
	C544.102295,628.909119 544.203125,628.899414 544.055115,628.190613 
	C543.089111,626.456177 542.106445,624.730774 541.160950,622.985229 
	C539.743896,620.369324 537.953918,617.771729 540.703857,614.667297 
	C540.703857,614.667297 540.848694,614.447327 541.385498,614.089600 
	C547.984314,610.436279 554.583069,606.783020 561.086731,603.079529 
	C561.086731,603.079529 561.115784,603.183044 561.733276,603.085449 
	C562.616333,602.568054 563.499390,602.050598 564.400085,601.442566 
	C564.400085,601.442566 564.474854,601.496643 565.105164,601.206360 
	C570.125061,598.175171 575.145020,595.144043 580.075623,592.083252 
	C580.075623,592.083252 580.081116,592.177185 580.776855,592.024231 
	C584.897644,589.379639 589.018494,586.735046 593.054443,584.043762 
	C593.054443,584.043762 593.077881,584.137695 593.744568,583.993225 
	C595.563904,582.710815 597.383240,581.428345 599.095215,580.115479 
	C599.095215,580.115479 599.111816,580.225830 599.732239,580.062561 
	C600.553406,579.421875 601.374512,578.781128 602.089905,578.113464 
	C602.089905,578.113464 602.108215,578.221069 602.729187,578.059326 
	C603.548218,577.416626 604.367188,576.773926 605.084900,576.104187 
	C605.084900,576.104187 605.100159,576.207947 605.720886,576.050537 
	C606.536499,575.405029 607.352112,574.759460 608.075867,574.087646 
	C608.075867,574.087646 608.086060,574.182617 608.702515,574.023926 
	C609.514526,573.377747 610.326538,572.731567 611.054565,572.042725 
	C611.054565,572.042725 611.076050,572.134460 611.738525,571.961426 
	C613.864258,570.329590 615.990051,568.697754 618.035156,567.028625 
	C618.035156,567.028625 618.060791,567.113647 618.688477,566.941650 
	C619.848877,565.998779 621.009277,565.055908 622.075989,564.073975 
	C622.075989,564.073975 622.105835,564.171021 622.657349,564.022583 
	C623.250549,563.556152 623.843811,563.089722 624.521545,562.508057 
	C624.521545,562.508057 624.635742,562.422180 624.894897,562.331299 
	C625.055847,562.233032 625.178101,562.099365 625.700134,561.840820 
	C625.700134,561.840820 625.949280,561.469177 626.461243,561.178711 
	C627.708374,560.168396 628.955505,559.158081 630.099731,558.117737 
	C630.099731,558.117737 630.118347,558.223328 630.689209,558.067749 
	C631.589111,557.343750 632.489075,556.619751 633.749207,555.780457 
	C633.749207,555.780457 633.967712,555.471619 634.414185,555.222412 
	C635.085449,554.701416 635.756714,554.180420 636.550781,553.537170 
	C636.550781,553.537170 636.670837,553.412231 636.946472,553.303406 
	C637.117981,553.192749 637.244141,553.043701 637.631104,552.734619 
	C637.631104,552.734619 637.812683,552.459839 638.326233,552.123413 
	C639.947327,550.793640 641.568420,549.463806 643.088135,548.107361 
	C643.088135,548.107361 643.104858,548.210876 643.669250,548.036255 
	C644.267639,547.535278 644.866028,547.034302 645.451416,546.434692 
	C645.451416,546.434692 645.550171,546.446472 645.875488,546.330688 
	C646.079834,546.210449 646.236389,546.044983 646.624512,545.714417 
	C646.624512,545.714417 646.801270,545.467163 647.213013,545.189819 
	C647.533691,544.832703 647.854370,544.475647 648.078918,544.076355 
	C648.078918,544.076355 648.112671,544.175903 648.711548,543.989502 
	C649.947998,542.948792 651.184509,541.908020 652.719482,540.724792 
	C652.719482,540.724792 652.897339,540.445862 653.378845,540.146423 
	C654.397888,539.297729 655.416931,538.448975 656.491882,537.490601 
	C656.491882,537.490601 656.600830,537.433289 656.901917,537.325500 
	C657.091187,537.212402 657.232422,537.055908 657.631409,536.735352 
	C657.631409,536.735352 657.814087,536.461914 658.223633,536.185791 
	C658.538330,535.827576 658.853027,535.469360 659.071289,535.068970 
	C659.071289,535.068970 659.108215,535.167419 659.722778,534.945740 
	C661.305176,533.555725 662.887512,532.165649 664.633118,530.636597 
	C664.633118,530.636597 664.776672,530.477356 665.196228,530.197998 
	C665.517761,529.833191 665.839233,529.468445 666.066589,529.064819 
	C666.066589,529.064819 666.101318,529.160583 666.727478,528.921692 
	C668.956970,526.908569 671.186401,524.895386 673.889648,522.623291 
	C673.936829,522.449646 673.983948,522.275940 674.029907,522.032349 
	C674.029907,522.032349 674.147339,521.982910 674.631042,521.874146 
	C674.631042,521.874146 674.875977,521.443115 675.283813,521.161072 
	C675.596985,520.796204 675.910156,520.431274 676.654053,519.981384 
	C676.944763,519.828979 677.088074,519.588623 677.677551,519.018433 
	C678.568054,518.120300 679.458618,517.222229 680.169617,516.167542 
	C680.169617,516.167542 680.295898,516.369507 680.793701,516.187256 
	C680.999634,515.909302 681.205566,515.631348 681.216370,515.246826 
	C681.216370,515.246826 681.361572,515.415283 681.889038,515.183960 
	C682.421631,514.639404 682.954285,514.094788 683.451233,513.443665 
	C683.451233,513.443665 683.557068,513.481323 684.107727,513.116638 
	C685.687927,511.516235 687.268188,509.915802 688.945801,508.145050 
	C688.945801,508.145050 689.105713,507.850342 689.801147,507.713684 
	C690.241089,507.164795 690.681030,506.615906 691.035950,506.036774 
	C691.035950,506.036774 691.068420,506.121002 691.528870,505.966339 
	C691.840820,505.598480 692.152771,505.230621 692.852966,504.645905 
	C692.852966,504.645905 692.971619,504.217255 693.048584,504.105865 
	C693.048584,504.105865 693.254028,503.937347 693.661194,503.816833 
	C693.661194,503.816833 693.869568,503.446777 694.253723,503.160706 
	C694.546448,502.803223 694.839172,502.445709 695.036621,502.035461 
	C695.036621,502.035461 695.086975,502.132019 695.647339,501.897461 
	C696.154236,501.278229 696.661133,500.658966 697.617432,499.936646 
	C697.909180,499.759186 698.049988,499.499786 698.507568,498.971832 
	C698.833862,498.593445 699.160156,498.215027 699.815186,497.631195 
	C699.815186,497.631195 699.931885,497.261536 700.051208,497.139099 
	C700.051208,497.139099 700.296082,496.903900 700.764160,496.730408 
	C700.764160,496.730408 700.932251,496.260315 701.050232,496.138214 
	C701.050232,496.138214 701.293640,495.905151 701.763611,495.731567 
	C701.819824,495.574310 701.876099,495.417084 702.051331,495.137756 
	C702.051331,495.137756 702.295532,494.903564 702.765137,494.729736 
	C702.821289,494.572540 702.877502,494.415375 703.047363,494.137573 
	C703.047363,494.137573 703.286743,493.913086 703.776062,493.732971 
	C703.833984,493.569092 703.891846,493.405212 704.050171,493.123260 
	C704.050171,493.123260 704.277893,492.917847 704.766174,492.741028 
	C704.824402,492.578003 704.882629,492.414978 705.064087,492.127625 
	C705.064087,492.127625 705.311340,491.882904 705.766846,491.709869 
	C705.766846,491.709869 705.929443,491.250488 706.002380,491.194763 
	C706.002380,491.194763 706.030518,491.107361 706.648926,490.834137 
	C723.688599,470.661194 741.086609,450.776001 757.614075,430.191864 
	C765.677490,420.149231 772.308960,408.924469 779.224365,398.004211 
	C783.710632,390.919830 783.211792,384.369568 777.820312,379.426331 
	C766.300354,368.864197 754.604553,358.484589 742.736328,348.315613 
	C737.581116,343.898438 730.837463,344.757385 726.244995,349.755035 
	C724.676697,351.461670 723.265320,353.335266 721.950806,355.248383 
	C715.936401,364.001495 710.451904,373.164368 703.912537,381.502014 
	C687.930908,401.878479 671.471375,421.880157 654.816467,442.267914 
	C654.816467,442.267914 654.671021,442.697449 654.813721,442.812775 
	C654.813721,442.812775 654.734619,442.647217 654.228455,442.875641 
	C654.051453,443.194519 653.874451,443.513397 653.855347,443.862427 
	C653.855347,443.862427 653.822693,443.705017 653.304016,443.917603 
	C653.112610,444.230377 652.921265,444.543182 652.875305,444.882172 
	C652.875305,444.882172 652.847534,444.737000 652.330566,444.946411 
	C652.141602,445.258911 651.952637,445.571411 651.900330,445.904846 
	C651.900330,445.904846 651.877747,445.768402 651.361206,445.975464 
	C651.169128,446.284851 650.976990,446.594238 650.915100,446.921448 
	C650.915100,446.921448 650.896423,446.791290 650.380066,446.994446 
	C650.192261,447.305634 650.004456,447.616852 649.918457,447.939087 
	C649.918457,447.939087 649.897766,447.838745 649.433289,448.000702 
	C649.129517,448.384308 648.825745,448.767914 648.164368,449.363464 
	C648.164368,449.363464 648.048401,449.762695 647.951172,449.879700 
	C647.951172,449.879700 647.725830,450.079254 647.227783,450.261139 
	C647.168030,450.427460 647.108215,450.593781 646.946350,450.878113 
	C646.946350,450.878113 646.717590,451.084778 646.227722,451.263184 
	C646.169373,451.426880 646.111023,451.590576 645.952393,451.872925 
	C645.952393,451.872925 645.724121,452.078735 645.342651,452.200867 
	C645.342651,452.200867 645.140869,452.546844 644.749329,452.831512 
	C644.457336,453.197906 644.165344,453.564270 643.957153,453.947021 
	C643.957153,453.947021 643.952087,453.861786 643.434143,454.041168 
	C643.231873,454.333557 643.029541,454.625916 642.915649,454.932678 
	C642.915649,454.932678 642.896240,454.845154 642.441101,455.009460 
	C642.138000,455.383911 641.834839,455.758362 641.143494,456.351776 
	C641.143494,456.351776 641.026123,456.781738 640.933838,456.898956 
	C640.933838,456.898956 640.714050,457.095581 640.213196,457.267212 
	C640.151367,457.432495 640.089600,457.597809 639.955078,457.878235 
	C639.955078,457.878235 639.745972,458.042419 639.339417,458.172729 
	C639.339417,458.172729 639.137695,458.548950 638.747192,458.833405 
	C638.456482,459.199463 638.165771,459.565521 637.960144,459.948547 
	C637.960144,459.948547 637.956604,459.861755 637.423523,460.047089 
	C637.207764,460.343842 636.992065,460.640625 636.257385,461.097717 
	C635.814209,461.649811 635.370972,462.201904 634.397705,462.970612 
	C634.185791,463.278259 633.973877,463.585907 633.903564,463.912384 
z"/>
<path fill="#003054" opacity="1.000000" stroke="none" 
	d="
M589.216003,683.929138 
	C589.546509,683.911194 589.801147,684.041504 590.128906,684.811890 
	C590.608398,685.484009 590.938843,685.664429 591.269287,685.844849 
	C591.269287,685.844849 591.125244,685.872314 591.215637,686.081848 
	C591.641113,686.451416 591.976257,686.611511 592.311340,686.771606 
	C592.311340,686.771606 592.185913,686.814880 592.238953,687.035828 
	C592.578979,687.488647 592.865967,687.720520 593.152954,687.952393 
	C593.152954,687.952393 593.048828,687.956604 593.095459,688.089844 
	C593.421448,688.229980 593.700867,688.237000 593.980286,688.244019 
	C600.001465,692.912781 605.915527,697.728760 612.072021,702.211670 
	C619.116760,707.341248 621.225952,707.274597 627.809875,701.705383 
	C651.193115,681.926086 669.966064,658.462341 683.725159,631.058899 
	C685.953003,626.621765 687.932129,622.059692 690.577026,617.195374 
	C692.380676,613.832947 693.633606,610.830566 694.886536,607.828247 
	C694.886536,607.828247 694.924072,607.918701 695.262939,607.913330 
	C698.555725,606.949890 701.481201,605.285828 704.468689,605.165955 
	C713.516846,604.802856 722.590576,604.933044 731.651428,605.067383 
	C742.168579,605.223206 752.682556,605.587280 763.197937,605.860962 
	C763.197937,605.861023 763.089600,605.893494 763.178345,606.114746 
	C763.596497,606.509033 763.925964,606.682007 764.255432,606.854980 
	C764.255432,606.854980 764.143555,606.879700 764.093689,607.283081 
	C762.346008,614.819824 760.797363,621.993164 758.901855,629.073669 
	C757.463928,634.444946 755.584106,639.697815 753.900940,645.003418 
	C742.345032,672.230469 726.547424,696.828918 707.171204,719.075623 
	C684.723206,744.849243 658.684021,766.327759 628.135620,782.668762 
	C626.225403,782.897888 624.759460,783.133545 623.518860,783.792969 
	C607.280701,792.424011 590.391235,799.427551 572.627258,804.243958 
	C564.085449,806.559875 555.510925,808.755127 546.520142,811.002930 
	C544.767761,811.050293 543.440491,811.036133 542.125977,811.158875 
	C528.554993,812.426514 515.003113,813.964905 501.409790,814.903809 
	C493.665436,815.438660 485.854187,815.004883 477.734314,814.998779 
	C476.596741,815.277893 475.797882,815.565491 474.998993,815.853149 
	C474.833557,815.894958 474.668091,815.936768 474.155518,815.532593 
	C470.829498,814.542542 467.864868,813.897644 464.869049,813.473083 
	C456.256470,812.252258 447.631256,811.120422 438.755585,809.680298 
	C436.580139,808.924500 434.669250,808.401245 432.738617,807.965454 
	C408.689575,802.537842 385.728882,794.131165 363.774963,782.922424 
	C360.898376,781.453735 357.818329,780.383789 354.832489,779.129150 
	C354.832489,779.129150 354.919800,779.097778 354.814148,778.796021 
	C353.065155,777.727417 351.421753,776.960632 349.778351,776.193848 
	C349.778351,776.193848 349.880035,776.156372 349.789795,775.853638 
	C348.070251,774.751404 346.441010,773.951904 344.811768,773.152466 
	C344.811737,773.152466 344.925262,773.074097 344.897369,772.772278 
	C342.833832,771.384521 340.798187,770.298523 338.762512,769.212524 
	C338.762512,769.212585 338.867737,769.171082 338.789551,768.880127 
	C335.417786,766.433899 332.124207,764.278564 328.830597,762.123230 
	C328.830597,762.123230 328.937286,762.067078 328.911316,761.736389 
	C327.796570,760.899963 326.707794,760.394287 325.618988,759.888550 
	C325.618988,759.888550 325.282013,759.766357 325.353821,759.297607 
	C323.900177,757.901794 322.374756,756.974731 320.849335,756.047668 
	C320.538361,756.058044 320.268372,755.957886 319.952667,755.156494 
	C319.097809,754.236755 318.329590,753.907776 317.561401,753.578796 
	C317.561401,753.578796 317.557983,753.476440 317.576477,753.146118 
	C316.935516,752.506470 316.276093,752.197266 315.616669,751.888000 
	C315.616669,751.888000 315.296295,751.759705 315.333679,751.322266 
	C314.834900,750.658081 314.298706,750.431274 313.762512,750.204468 
	C313.762543,750.204468 313.919312,750.087036 313.898285,749.804199 
	C311.781769,747.969727 309.686279,746.418152 307.590820,744.866577 
	C307.590820,744.866577 307.306458,744.728638 307.349060,744.305725 
	C306.869446,743.632690 306.347198,743.382568 305.824951,743.132507 
	C305.824951,743.132507 305.916962,743.104187 305.819183,742.886658 
	C305.410339,742.487244 305.099274,742.305359 304.788208,742.123413 
	C304.788239,742.123413 304.904968,742.101257 304.805664,741.890930 
	C304.384796,741.509766 304.063232,741.338867 303.741699,741.167969 
	C303.741699,741.167969 303.846558,741.139771 303.862091,740.830444 
	C299.506073,736.411133 295.134552,732.301147 290.763031,728.191101 
	C290.763031,728.191101 290.873779,728.153625 290.780060,727.924927 
	C290.357788,727.498169 290.029266,727.299988 289.700714,727.101868 
	C289.377563,727.100830 289.147003,726.954224 288.877655,726.181335 
	C288.438568,725.496765 288.130859,725.292908 287.823181,725.089050 
	C287.823181,725.089050 287.917633,725.068054 287.903076,724.793335 
	C287.455841,724.311218 287.023163,724.103760 286.590485,723.896301 
	C286.434143,723.810242 286.277771,723.724121 286.238831,723.281372 
	C286.356232,722.924866 286.071014,722.635986 286.071014,722.635986 
	C286.071014,722.635986 285.835724,722.971375 285.835724,722.971375 
	C285.835724,722.971375 285.390320,722.846985 285.430176,722.322876 
	C283.907074,720.259888 282.344116,718.720947 280.781189,717.182068 
	C280.781189,717.182068 280.886322,717.126831 280.801605,716.911804 
	C280.417053,716.497131 280.117249,716.297485 279.817413,716.097839 
	C279.817413,716.097839 279.914154,716.073181 279.906219,715.757446 
	C279.103638,714.847778 278.308960,714.253906 277.514282,713.660034 
	C277.514282,713.660034 277.468109,713.539368 277.515289,713.161987 
	C276.646027,711.902161 275.729584,711.019714 274.813110,710.137207 
	C274.813141,710.137207 274.906799,710.106567 274.825562,709.892700 
	C274.464020,709.466125 274.183746,709.253357 273.903442,709.040588 
	C273.903473,709.040588 273.983124,709.023254 273.942810,708.728271 
	C273.437286,708.117065 272.972107,707.800842 272.506927,707.484680 
	C272.506927,707.484680 272.623108,707.341492 272.676514,707.020630 
	C271.997772,706.097351 271.265656,705.494812 270.533508,704.892334 
	C270.533508,704.892334 270.195984,704.667908 270.297485,704.267822 
	C270.127411,703.790588 269.855896,703.713440 269.584381,703.636230 
	C269.584381,703.636230 269.492981,703.523438 269.582520,703.137085 
	C269.054321,702.208862 268.436584,701.666992 267.818848,701.125183 
	C267.818817,701.125183 267.932678,701.067383 267.914429,700.751343 
	C266.768799,699.245178 265.641418,698.055054 264.514038,696.864868 
	C264.514038,696.864868 264.283600,696.674011 264.423828,696.218262 
	C263.969788,695.227478 263.375488,694.692383 262.781189,694.157349 
	C262.781189,694.157349 262.903473,694.090332 262.884399,693.812744 
	C262.406769,693.244629 261.948242,692.954224 261.489716,692.663818 
	C261.489716,692.663818 261.430908,692.538147 261.541992,692.135742 
	C260.773102,687.766479 257.597778,688.013123 254.653702,688.008728 
	C236.657501,687.982056 218.659637,688.128479 200.666183,687.905579 
	C196.119522,687.849182 191.586929,686.657654 186.891541,685.656860 
	C185.821823,681.704712 184.294174,678.112976 184.118027,674.456116 
	C183.702515,665.829895 184.646317,657.092651 183.689621,648.551575 
	C182.801743,640.625061 182.935623,633.163879 186.489334,625.852173 
	C191.110748,625.248230 195.329071,624.257324 199.579956,624.088989 
	C207.051727,623.793152 214.547653,624.133057 222.023453,623.893860 
	C223.666763,623.841309 225.268188,622.479614 226.888885,621.720764 
	C226.888885,621.720764 226.907562,621.871704 227.138000,621.886719 
	C227.603317,621.277039 227.838211,620.652344 228.073105,620.027710 
	C228.052994,619.268005 228.032898,618.508240 228.336395,617.099976 
	C228.123459,613.091431 227.517166,609.740845 227.062302,606.369873 
	C225.023438,591.259583 223.027710,576.143616 221.016052,560.557739 
	C221.014908,553.053101 221.014114,546.020386 221.068130,538.574463 
	C221.409470,536.878784 221.825089,535.609802 221.961975,534.311523 
	C222.996170,524.502869 224.000031,514.690796 224.961456,504.874725 
	C225.413971,500.254730 225.752029,495.623535 226.141937,490.997437 
	C233.862854,454.253357 249.140289,420.952728 271.702454,390.966583 
	C297.339600,356.893677 328.942657,329.969360 367.877075,311.356842 
	C370.613617,310.897064 372.787079,310.249756 374.933533,309.522888 
	C387.252014,305.351501 399.582672,301.214111 411.849518,296.895599 
	C413.075195,296.464081 413.899689,294.892914 414.910370,293.850647 
	C414.910370,293.850647 414.928894,293.957947 415.218567,293.762756 
	C416.002258,291.353821 416.918396,289.141602 416.926208,286.926178 
	C417.026093,258.602325 416.995911,230.278000 417.005554,201.574768 
	C417.263580,199.717773 417.514862,198.239822 417.766174,196.761871 
	C417.766174,196.761871 417.875427,196.917999 418.129486,196.806122 
	C418.710999,195.986282 419.038452,195.278336 419.365936,194.570389 
	C419.365936,194.570389 419.477936,194.489716 419.904541,194.584656 
	C422.713104,194.119553 425.104919,193.037231 427.475525,193.081802 
	C447.112030,193.451096 466.744568,194.028793 486.378326,194.543442 
	C486.378326,194.543442 486.371338,194.626633 486.301758,194.954910 
	C486.810944,196.193039 487.389740,197.102890 487.970032,198.480591 
	C488.310364,217.291641 488.851624,235.634094 488.917664,253.978271 
	C488.962433,266.414185 488.227570,278.850800 488.038666,291.290100 
	C487.635132,317.866730 487.359741,344.445282 487.024780,371.489380 
	C487.013855,398.613220 486.977631,425.270844 487.082642,451.927917 
	C487.089294,453.616852 488.194763,455.301422 488.789032,456.988037 
	C489.452026,464.738983 490.115051,472.489929 490.407227,480.730103 
	C490.739105,486.806091 491.441772,492.392883 492.144470,497.979675 
	C492.144470,497.979675 492.048126,497.977783 492.032837,498.380493 
	C493.677979,507.188812 495.338379,515.594421 496.993896,524.419556 
	C499.694031,533.628357 502.364136,542.428833 505.184204,551.181030 
	C505.367371,551.749634 506.702942,551.946838 507.502441,552.316833 
	C507.502441,552.316833 507.519043,552.437134 507.514893,552.797302 
	C508.608276,553.724243 510.147675,555.070618 510.735413,554.737610 
	C516.884521,551.252930 522.881165,547.499084 528.919983,543.819763 
	C528.919983,543.819763 528.927673,543.916199 529.265503,543.935303 
	C530.534180,543.126343 531.465027,542.298279 532.395874,541.470215 
	C532.395874,541.470215 532.492615,541.505188 532.815430,541.538086 
	C533.391418,541.275574 533.644592,540.980103 533.897766,540.684570 
	C553.881775,526.490234 574.191223,512.726318 593.734314,497.948792 
	C606.558044,488.252136 618.274292,477.090759 630.913696,466.548706 
	C631.492859,466.252625 631.644775,465.993103 631.796753,465.733612 
	C631.796753,465.733612 631.835571,465.860779 632.055786,465.781433 
	C632.473572,465.383362 632.671021,465.064606 632.868469,464.745850 
	C632.868469,464.745819 632.893250,464.893341 633.098938,464.808868 
	C633.496887,464.406708 633.689148,464.089020 633.881409,463.771332 
	C633.881409,463.771332 633.903564,463.912384 634.112793,463.815613 
	C634.523926,463.397247 634.725891,463.075623 634.927795,462.753998 
	C635.370972,462.201904 635.814209,461.649811 636.783691,460.925842 
	C637.525513,460.456543 637.741028,460.159149 637.956604,459.861755 
	C637.956604,459.861755 637.960144,459.948547 638.242310,459.927521 
	C638.728882,459.453979 638.933289,459.001465 639.137695,458.548950 
	C639.137695,458.548950 639.339417,458.172729 639.698303,458.292603 
	C640.057190,458.412506 640.386353,458.074310 640.386353,458.074310 
	C640.386353,458.074310 640.027771,457.763153 640.027771,457.763153 
	C640.089600,457.597809 640.151367,457.432495 640.634155,457.349335 
	C641.055054,457.431458 641.378174,457.093323 641.378174,457.093323 
	C641.378174,457.093323 641.026123,456.781738 641.026123,456.781738 
	C641.026123,456.781738 641.143494,456.351776 641.628784,456.379578 
	C642.374756,455.886627 642.635498,455.365875 642.896240,454.845154 
	C642.896240,454.845154 642.915649,454.932678 643.133301,454.841309 
	C643.551331,454.453918 643.751709,454.157867 643.952087,453.861786 
	C643.952087,453.861786 643.957153,453.947021 644.240479,453.926880 
	C644.729431,453.453461 644.935181,453.000153 645.140869,452.546844 
	C645.140869,452.546844 645.342651,452.200867 645.701660,452.311279 
	C646.060730,452.421722 646.389832,452.085754 646.389832,452.085754 
	C646.389832,452.085754 646.052673,451.754272 646.052673,451.754272 
	C646.111023,451.590576 646.169373,451.426880 646.642700,451.343933 
	C647.057739,451.424713 647.387268,451.089417 647.387268,451.089417 
	C647.387268,451.089417 647.048462,450.760101 647.048462,450.760101 
	C647.108215,450.593781 647.168030,450.427460 647.644653,450.341492 
	C648.061523,450.421814 648.390869,450.087372 648.390869,450.087372 
	C648.390869,450.087372 648.048401,449.762695 648.048401,449.762695 
	C648.048401,449.762695 648.164368,449.363464 648.639282,449.390930 
	C649.375427,448.891846 649.636597,448.365295 649.897766,447.838745 
	C649.897766,447.838745 649.918457,447.939087 650.132202,447.837524 
	C650.529480,447.421112 650.712952,447.106201 650.896423,446.791290 
	C650.896423,446.791290 650.915100,446.921448 651.119934,446.822083 
	C651.509094,446.404602 651.693420,446.086517 651.877747,445.768402 
	C651.877747,445.768402 651.900330,445.904846 652.106934,445.808807 
	C652.491577,445.387512 652.669556,445.062256 652.847534,444.737000 
	C652.847534,444.737000 652.875305,444.882172 653.084290,444.790222 
	C653.469727,444.367157 653.646240,444.036102 653.822754,443.705017 
	C653.822693,443.705017 653.855347,443.862427 654.065247,443.773193 
	C654.428345,443.338379 654.581482,442.992798 654.734619,442.647217 
	C654.734619,442.647217 654.813721,442.812775 654.934204,442.793640 
	C655.179382,442.747955 655.304077,442.721466 655.428711,442.694946 
	C655.353882,442.474213 655.279053,442.253448 655.204224,442.032715 
	C671.471375,421.880157 687.930908,401.878479 703.912537,381.502014 
	C710.451904,373.164368 715.936401,364.001495 721.950806,355.248383 
	C723.265320,353.335266 724.676697,351.461670 726.244995,349.755035 
	C730.837463,344.757385 737.581116,343.898438 742.736328,348.315613 
	C754.604553,358.484589 766.300354,368.864197 777.820312,379.426331 
	C783.211792,384.369568 783.710632,390.919830 779.224365,398.004211 
	C772.308960,408.924469 765.677490,420.149231 757.614075,430.191864 
	C741.086609,450.776001 723.688599,470.661194 706.237549,490.812683 
	C705.707397,490.767395 705.588684,490.743561 705.469971,490.719727 
	C705.623169,490.896637 705.776306,491.073547 705.929443,491.250488 
	C705.929443,491.250488 705.766846,491.709869 705.354492,491.636017 
	C704.942200,491.562164 704.607849,491.904938 704.607849,491.904938 
	C704.607849,491.904938 704.940918,492.251923 704.940918,492.251923 
	C704.882629,492.414978 704.824402,492.578003 704.352844,492.658508 
	C703.939514,492.575958 703.610107,492.912048 703.610107,492.912048 
	C703.610107,492.912048 703.949707,493.241333 703.949707,493.241333 
	C703.891846,493.405212 703.833984,493.569092 703.357971,493.654114 
	C702.939880,493.575256 702.606445,493.912170 702.606445,493.912170 
	C702.606445,493.912170 702.933777,494.258179 702.933777,494.258179 
	C702.877502,494.415375 702.821289,494.572540 702.352600,494.651093 
	C701.940063,494.572449 701.605652,494.910828 701.605652,494.910828 
	C701.605652,494.910828 701.932312,495.259827 701.932312,495.259827 
	C701.876099,495.417084 701.819824,495.574310 701.351440,495.652100 
	C700.939270,495.572662 700.605042,495.911469 700.605042,495.911469 
	C700.605042,495.911469 700.932251,496.260315 700.932251,496.260315 
	C700.932251,496.260315 700.764160,496.730408 700.351807,496.651215 
	C699.939514,496.572021 699.604248,496.911530 699.604248,496.911530 
	C699.604248,496.911530 699.931885,497.261536 699.931885,497.261536 
	C699.931885,497.261536 699.815186,497.631195 699.351929,497.606842 
	C698.605713,498.107819 698.322815,498.633148 698.039856,499.158478 
	C698.049988,499.499786 697.909180,499.759186 697.043945,500.009644 
	C696.009338,500.765747 695.548157,501.448883 695.086975,502.132019 
	C695.086975,502.132019 695.036621,502.035461 694.760376,502.069336 
	C694.279236,502.551025 694.074402,502.998901 693.869568,503.446777 
	C693.869568,503.446777 693.661194,503.816833 693.301392,503.700867 
	C692.941650,503.584930 692.621277,503.915009 692.621277,503.915009 
	C692.621277,503.915009 692.971619,504.217255 692.971619,504.217255 
	C692.971619,504.217255 692.852966,504.645905 692.371460,504.616211 
	C691.616150,505.097992 691.342285,505.609497 691.068420,506.121002 
	C691.068420,506.121002 691.035950,506.036774 690.688599,506.077942 
	C689.929443,506.696167 689.517578,507.273254 689.105713,507.850342 
	C689.105713,507.850342 688.945801,508.145050 688.499207,508.164429 
	C686.554077,509.949677 685.055542,511.715485 683.557068,513.481323 
	C683.557068,513.481323 683.451233,513.443665 683.126587,513.419922 
	C682.321777,514.069214 681.841675,514.742249 681.361572,515.415283 
	C681.361572,515.415283 681.216370,515.246826 681.013184,515.308533 
	C680.638611,515.703308 680.467224,516.036438 680.295898,516.369507 
	C680.295898,516.369507 680.169617,516.167542 679.884155,516.172974 
	C678.760498,517.205811 677.922241,518.233154 677.083984,519.260437 
	C677.088074,519.588623 676.944763,519.828979 676.107056,520.033447 
	C675.332092,520.538025 675.104004,520.990540 674.875977,521.443115 
	C674.875977,521.443115 674.631042,521.874146 674.284668,521.747253 
	C673.938354,521.620361 673.663208,521.919983 673.663208,521.919983 
	C673.663208,521.919983 674.031067,522.102295 674.031067,522.102295 
	C673.983948,522.275940 673.936829,522.449646 673.346130,522.585449 
	C670.568848,524.751953 668.335083,526.956238 666.101318,529.160583 
	C666.101318,529.160583 666.066589,529.064819 665.782959,529.086548 
	C665.258484,529.564636 665.017578,530.020996 664.776611,530.477356 
	C664.776672,530.477356 664.633118,530.636597 664.216187,530.560974 
	C662.235596,532.046021 660.671936,533.606750 659.108215,535.167419 
	C659.108215,535.167419 659.071289,535.068970 658.791260,535.091064 
	C658.278870,535.562805 658.046448,536.012329 657.814087,536.461914 
	C657.814087,536.461914 657.631409,536.735352 657.252197,536.649780 
	C656.782288,536.853882 656.691528,537.143555 656.600830,537.433289 
	C656.600830,537.433289 656.491882,537.490601 656.111206,537.390991 
	C654.786194,538.342896 653.841736,539.394348 652.897339,540.445862 
	C652.897339,540.445862 652.719482,540.724792 652.258911,540.633057 
	C650.569763,541.752869 649.341248,542.964355 648.112671,544.175903 
	C648.112671,544.175903 648.078918,544.076355 647.796875,544.094482 
	C647.276978,544.564148 647.039124,545.015686 646.801270,545.467163 
	C646.801270,545.467163 646.624512,545.714417 646.247681,545.636475 
	C645.763977,545.854553 645.657043,546.150513 645.550171,546.446472 
	C645.550171,546.446472 645.451416,546.434692 645.127930,546.404114 
	C644.237915,546.986023 643.671387,547.598450 643.104858,548.210876 
	C643.104858,548.210876 643.088135,548.107361 642.773682,548.103516 
	C640.910339,549.553040 639.361511,551.006409 637.812683,552.459839 
	C637.812683,552.459839 637.631104,552.734619 637.257812,552.650757 
	C636.813293,552.848694 636.742065,553.130432 636.670837,553.412231 
	C636.670837,553.412231 636.550781,553.537170 636.139893,553.428528 
	C635.141968,554.037170 634.554871,554.754395 633.967712,555.471619 
	C633.967712,555.471619 633.749207,555.780457 633.282837,555.663452 
	C631.917114,556.438721 631.017761,557.331055 630.118347,558.223328 
	C630.118347,558.223328 630.099731,558.117737 629.778076,558.111572 
	C628.287354,559.226685 627.118286,560.347961 625.949280,561.469177 
	C625.949280,561.469177 625.700134,561.840820 625.283447,561.721130 
	C624.789795,561.875000 624.712769,562.148621 624.635742,562.422180 
	C624.635742,562.422180 624.521545,562.508057 624.136963,562.415283 
	C623.203491,562.938660 622.654663,563.554871 622.105835,564.171021 
	C622.105835,564.171021 622.075989,564.073975 621.757629,564.082581 
	C620.313110,565.098694 619.186951,566.106140 618.060791,567.113647 
	C618.060791,567.113647 618.035156,567.028625 617.710938,567.054443 
	C615.283142,568.765015 613.179626,570.449768 611.076050,572.134460 
	C611.076050,572.134460 611.054565,572.042725 610.752319,572.061157 
	C609.661987,572.780579 608.874023,573.481567 608.086060,574.182617 
	C608.086060,574.182617 608.075867,574.087646 607.774170,574.088989 
	C606.681641,574.796204 605.890930,575.502075 605.100220,576.208008 
	C605.100159,576.207947 605.084900,576.104187 604.786194,576.098938 
	C603.694397,576.802795 602.901306,577.511963 602.108215,578.221069 
	C602.108215,578.221069 602.089905,578.113464 601.792419,578.104980 
	C600.700562,578.806274 599.906189,579.516052 599.111816,580.225830 
	C599.111816,580.225830 599.095215,580.115479 598.776855,580.111084 
	C596.664917,581.450317 594.871399,582.794006 593.077881,584.137695 
	C593.077881,584.137695 593.054443,584.043762 592.716492,584.041992 
	C588.279419,586.752502 584.180237,589.464844 580.081116,592.177185 
	C580.081116,592.177185 580.075623,592.083252 579.735596,592.065613 
	C574.422058,595.197510 569.448425,598.347107 564.474854,601.496643 
	C564.474854,601.496643 564.400085,601.442566 564.016357,601.333618 
	C562.793701,601.877502 561.954712,602.530273 561.115784,603.183044 
	C561.115784,603.183044 561.086731,603.079529 560.744751,603.068726 
	C554.156921,606.008240 547.889099,608.914124 541.703003,611.984558 
	C541.147644,612.260315 541.120911,613.601135 540.848694,614.447327 
	C540.848694,614.447327 540.703857,614.667297 540.236206,614.614624 
	C536.627197,618.528320 538.584473,624.856384 544.203125,628.899414 
	C544.203125,628.899414 544.102295,628.909119 544.078979,629.239197 
	C545.768677,632.013489 547.481628,634.457764 549.194580,636.901978 
	C549.194580,636.901978 549.098267,636.916809 549.099243,637.238220 
	C551.884033,641.238281 554.667969,644.916992 557.451843,648.595642 
	C557.300476,648.727356 557.149048,648.859070 557.112000,649.160400 
	C557.976196,649.957520 558.726013,650.585083 559.475830,651.212646 
	C559.475830,651.212646 559.646057,651.359314 559.569275,651.780884 
	C560.396057,653.089294 561.299622,653.976135 562.203186,654.862915 
	C562.203186,654.862915 562.099060,654.903931 562.102905,655.218750 
	C563.792175,657.320557 565.477600,659.107544 567.163025,660.894531 
	C567.163025,660.894531 567.063232,660.932800 567.086365,661.215332 
	C567.564575,661.738953 568.019653,661.980103 568.474731,662.221313 
	C568.474731,662.221313 568.651550,662.370178 568.572327,662.776001 
	C569.760498,664.394470 571.027954,665.607117 572.295349,666.819824 
	C572.295349,666.819824 572.145508,666.852722 572.207397,667.103271 
	C572.921082,667.863831 573.572937,668.373901 574.224731,668.883911 
	C574.224731,668.883911 574.114502,668.912109 574.114929,669.206360 
	C574.784973,669.978149 575.454529,670.455688 576.124146,670.933228 
	C576.124146,670.933228 576.038330,670.948975 576.141113,671.159180 
	C576.541870,671.563660 576.839905,671.757996 577.137878,671.952271 
	C577.137878,671.952271 577.053833,671.958801 577.062866,672.275269 
	C578.529846,673.785400 579.987732,674.979004 581.445679,676.172607 
	C581.445679,676.172607 581.662903,676.318420 581.590942,676.740479 
	C582.164612,677.504578 582.810242,677.846741 583.455933,678.188843 
	C583.455933,678.188843 583.652954,678.333008 583.577515,678.750977 
	C584.808350,680.151855 586.114563,681.134644 587.420837,682.117493 
	C587.420837,682.117493 587.685791,682.264038 587.640991,682.692017 
	C588.136169,683.389771 588.676086,683.659485 589.216003,683.929138 
M296.260620,615.362366 
	C296.571228,615.543518 296.881836,615.724670 297.090668,615.920410 
	C297.090668,615.920410 297.113953,615.820251 297.142639,616.604980 
	C299.300354,617.409180 301.569550,619.122559 303.598175,618.873901 
	C320.045135,616.857300 336.468903,614.615356 352.846191,612.094177 
	C356.657532,611.507507 360.263916,609.589417 364.711731,608.021484 
	C367.473114,607.392090 370.234497,606.762756 373.517761,606.649963 
	C376.376831,606.100464 379.316895,605.812683 382.081299,604.957214 
	C395.757690,600.724976 409.387604,596.342590 423.479370,591.739441 
	C423.613312,591.425781 423.747223,591.112061 423.895081,590.902771 
	C423.895081,590.902771 423.804901,590.848328 424.658051,590.938293 
	C430.055450,590.434631 435.280487,589.519104 438.985138,585.006226 
	C438.985138,585.006226 438.938354,584.969360 439.701294,584.898376 
	C444.080353,582.775940 441.593109,579.531494 440.777100,576.854858 
	C438.339233,568.858093 435.610077,560.950012 432.791016,552.559509 
	C432.595795,552.276855 432.332275,552.091187 432.000000,552.000000 
	C432.000000,552.000000 431.996490,552.000000 432.008667,551.173645 
	C430.437775,543.936218 428.600891,536.744202 427.353638,529.451416 
	C425.053101,516.000061 423.098663,502.489532 420.898773,488.174500 
	C419.940704,478.654022 418.552246,469.152985 418.122101,459.608704 
	C417.419922,444.028229 417.222443,428.421051 417.036896,412.822449 
	C416.866760,398.518280 417.033966,384.210358 416.946686,369.904724 
	C416.933777,367.790161 416.515839,365.623138 415.884369,363.605896 
	C415.726685,363.102112 414.010193,363.086243 412.251984,363.010956 
	C400.095001,368.946930 387.044891,373.559448 375.939362,381.053528 
	C333.340057,409.800079 304.714020,448.969910 290.981171,499.202423 
	C289.677795,505.840546 288.374390,512.478699 287.054077,519.026794 
	C287.054077,519.026794 287.145630,519.028259 286.491821,519.507080 
	C283.064148,537.293274 283.689087,555.195984 285.109314,573.099426 
	C285.320404,575.760681 286.451721,578.348938 287.058929,580.973328 
	C287.058929,580.973328 287.076141,580.876404 287.019623,581.710693 
	C287.395020,583.462646 287.770386,585.214600 288.056702,586.970703 
	C288.056702,586.970703 288.071960,586.882874 288.022034,587.759644 
	C290.400909,596.158264 292.779785,604.556946 295.064667,612.961792 
	C295.064667,612.961792 295.081573,612.869141 295.070099,613.517944 
	C295.434814,613.995178 295.799500,614.472412 296.050232,614.960205 
	C296.050232,614.960205 296.059937,614.846130 296.260620,615.362366 
M546.981445,743.390991 
	C547.026611,742.931213 547.071838,742.471436 547.018250,741.282410 
	C546.098572,740.014465 545.363953,738.544067 544.231384,737.509094 
	C528.352051,722.997009 513.297607,707.687561 500.603912,690.282959 
	C491.807861,678.222534 483.578278,665.742004 475.319061,653.300842 
	C472.538971,649.113098 469.543304,648.126953 464.836975,649.968384 
	C457.602905,652.799072 450.257324,655.455139 442.776062,657.523376 
	C418.889343,664.126953 394.918304,670.425537 370.406311,676.320923 
	C369.259247,676.225830 368.078430,675.905579 366.970459,676.071472 
	C358.487244,677.341431 350.009979,678.658508 341.556824,680.111938 
	C340.673767,680.263733 339.959198,681.395691 338.992798,682.643005 
	C339.932953,684.397156 340.515625,686.512207 341.867157,687.851135 
	C360.542053,706.351501 382.231598,720.455688 406.140320,732.102478 
	C413.100525,735.069336 420.022827,738.131653 427.052246,740.924316 
	C428.500153,741.499512 430.347717,741.068787 432.774506,741.069702 
	C439.196594,742.813660 445.618683,744.557556 452.217194,746.997864 
	C461.880676,748.668274 471.498535,751.317261 481.218750,751.770142 
	C494.437378,752.386108 507.734253,751.323914 521.806030,750.892883 
	C528.951233,749.397095 536.118591,747.994568 543.218933,746.309631 
	C544.342651,746.042908 545.164246,744.502686 546.272217,743.227478 
	C546.272217,743.227478 546.575562,743.041931 546.981445,743.390991 
z"/>
<path fill="#061C42" opacity="1.000000" stroke="none" 
	d="
M487.031860,371.023071 
	C487.359741,344.445282 487.635132,317.866730 488.038666,291.290100 
	C488.227570,278.850800 488.962433,266.414185 488.917664,253.978271 
	C488.851624,235.634094 488.310364,217.291641 488.172211,198.484772 
	C488.372925,198.021103 488.776520,198.011520 488.776489,198.011520 
	C489.190521,203.546417 489.957367,209.081024 489.961945,214.616257 
	C489.994446,253.895660 489.918640,293.175385 489.763367,332.454590 
	C489.724548,342.269806 489.325073,352.085419 488.969910,361.896454 
	C488.870239,364.649994 488.338104,367.387878 487.721191,370.570099 
	C487.437988,371.007233 487.031860,371.023071 487.031860,371.023071 
z"/>
<path fill="#061C42" opacity="1.000000" stroke="none" 
	d="
M416.998779,201.953796 
	C416.995911,230.278000 417.026093,258.602325 416.926208,286.926178 
	C416.918396,289.141602 416.002258,291.353821 415.164246,293.759277 
	C414.883759,264.272644 414.947296,234.594284 415.306671,204.278259 
	C416.067963,203.078308 416.533356,202.516052 416.998779,201.953796 
z"/>
<path fill="#06254C" opacity="1.000000" stroke="none" 
	d="
M187.047867,685.987793 
	C191.586929,686.657654 196.119522,687.849182 200.666183,687.905579 
	C218.659637,688.128479 236.657501,687.982056 254.653702,688.008728 
	C257.597778,688.013123 260.773102,687.766479 261.481689,692.101440 
	C258.787140,691.617554 256.271210,690.053345 253.739639,690.027588 
	C235.311737,689.840332 216.877274,690.158264 198.453262,689.836060 
	C194.361954,689.764587 190.304047,687.781677 186.363220,686.341309 
	C186.679749,685.998474 186.863800,685.993103 187.047867,685.987793 
z"/>
<path fill="#06254C" opacity="1.000000" stroke="none" 
	d="
M355.014221,779.423340 
	C357.818329,780.383789 360.898376,781.453735 363.774963,782.922424 
	C385.728882,794.131165 408.689575,802.537842 432.738617,807.965454 
	C434.669250,808.401245 436.580139,808.924500 438.750793,809.902466 
	C439.001434,810.397766 439.000397,810.840881 439.000397,810.840881 
	C409.331268,805.136353 381.471008,794.561096 355.014221,779.423340 
z"/>
<path fill="#0E2247" opacity="1.000000" stroke="none" 
	d="
M546.951172,811.005005 
	C555.510925,808.755127 564.085449,806.559875 572.627258,804.243958 
	C590.391235,799.427551 607.280701,792.424011 623.518860,783.792969 
	C624.759460,783.133545 626.225403,782.897888 627.786865,782.716431 
	C604.040344,796.416077 578.536011,805.629089 551.637512,811.056274 
	C550.354614,811.315063 549.090515,811.667114 547.399414,811.706177 
	C546.981140,811.436523 546.951172,811.004944 546.951172,811.005005 
z"/>
<path fill="#102D50" opacity="1.000000" stroke="none" 
	d="
M486.149841,194.271393 
	C466.744568,194.028793 447.112030,193.451096 427.475525,193.081802 
	C425.104919,193.037231 422.713104,194.119553 419.940613,194.525818 
	C422.472992,193.250488 425.394623,191.169083 428.318939,191.165253 
	C445.543243,191.142776 462.769867,191.539444 479.990631,191.990265 
	C481.983704,192.042450 483.945190,193.300415 486.149841,194.271393 
z"/>
<path fill="#102D50" opacity="1.000000" stroke="none" 
	d="
M546.520142,811.002930 
	C546.951172,811.004944 546.981140,811.436523 546.991455,811.652588 
	C524.448120,816.178589 501.725189,817.773926 478.422058,815.790527 
	C478.044342,815.462036 478.073059,815.007324 478.073059,815.007324 
	C485.854187,815.004883 493.665436,815.438660 501.409790,814.903809 
	C515.003113,813.964905 528.554993,812.426514 542.125977,811.158875 
	C543.440491,811.036133 544.767761,811.050293 546.520142,811.002930 
z"/>
<path fill="#061C42" opacity="1.000000" stroke="none" 
	d="
M186.891541,685.656921 
	C186.863800,685.993103 186.679749,685.998474 186.219574,686.011353 
	C184.649612,682.627808 182.349411,679.269409 182.238281,675.840027 
	C181.787445,661.927124 181.821060,647.988098 182.138199,634.069214 
	C182.203186,631.217590 184.259293,628.411316 185.733551,625.580200 
	C186.069504,625.576294 186.100906,625.835632 186.100906,625.835632 
	C182.935623,633.163879 182.801743,640.625061 183.689621,648.551575 
	C184.646317,657.092651 183.702515,665.829895 184.118027,674.456116 
	C184.294174,678.112976 185.821823,681.704712 186.891541,685.656921 
z"/>
<path fill="#0B1F43" opacity="1.000000" stroke="none" 
	d="
M221.016388,561.029663 
	C223.027710,576.143616 225.023438,591.259583 227.062302,606.369873 
	C227.517166,609.740845 228.123459,613.091431 228.395996,616.724426 
	C223.269653,598.953125 220.649216,580.577148 220.274475,561.463989 
	C220.566956,561.015869 221.016403,561.029663 221.016388,561.029663 
z"/>
<path fill="#08183E" opacity="1.000000" stroke="none" 
	d="
M762.969910,605.533813 
	C752.682556,605.587280 742.168579,605.223206 731.651428,605.067383 
	C722.590576,604.933044 713.516846,604.802856 704.468689,605.165955 
	C701.481201,605.285828 698.555725,606.949890 695.215149,607.902649 
	C697.643127,606.594299 700.437256,604.217102 703.275940,604.162720 
	C721.346008,603.816711 739.426025,603.949097 757.502258,604.033508 
	C759.250610,604.041626 760.995422,604.797852 762.969910,605.533813 
z"/>
<path fill="#000B32" opacity="1.000000" stroke="none" 
	d="
M487.024780,371.489380 
	C487.031860,371.023071 487.437988,371.007233 487.641205,371.007202 
	C487.939331,394.930359 488.030273,418.853546 488.136353,442.776642 
	C488.145203,444.771027 488.255859,446.764954 488.153992,449.541809 
	C488.177795,451.208038 488.366791,452.091583 488.555786,452.975098 
	C488.668457,454.044464 488.781158,455.113831 488.841431,456.585632 
	C488.194763,455.301422 487.089294,453.616852 487.082642,451.927917 
	C486.977631,425.270844 487.013855,398.613220 487.024780,371.489380 
z"/>
<path fill="#061C42" opacity="1.000000" stroke="none" 
	d="
M414.551514,293.994537 
	C413.899689,294.892914 413.075195,296.464081 411.849518,296.895599 
	C399.582672,301.214111 387.252014,305.351501 374.933533,309.522888 
	C372.787079,310.249756 370.613617,310.897064 368.228699,311.339691 
	C382.647034,305.740173 397.289551,300.382782 411.930695,295.021698 
	C412.690582,294.743469 413.438934,294.433594 414.551514,293.994537 
z"/>
<path fill="#08183E" opacity="1.000000" stroke="none" 
	d="
M226.036346,491.385559 
	C225.752029,495.623535 225.413971,500.254730 224.961456,504.874725 
	C224.000031,514.690796 222.996170,524.502869 221.961975,534.311523 
	C221.825089,535.609802 221.409470,536.878784 220.850204,538.576660 
	C220.577469,538.992004 220.142029,539.002808 220.142029,539.002808 
	C222.071609,523.259766 224.001175,507.516754 226.036346,491.385559 
z"/>
<path fill="#08183E" opacity="1.000000" stroke="none" 
	d="
M754.075134,644.690674 
	C755.584106,639.697815 757.463928,634.444946 758.901855,629.073669 
	C760.797363,621.993164 762.346008,614.819824 764.110718,607.228394 
	C764.556763,609.071106 765.810791,611.657532 765.168457,613.624756 
	C761.792908,623.962097 757.937866,634.142822 754.075134,644.690674 
z"/>
<path fill="#061C42" opacity="1.000000" stroke="none" 
	d="
M439.390991,810.943115 
	C439.000397,810.840881 439.001434,810.397766 439.006226,810.175659 
	C447.631256,811.120422 456.256470,812.252258 464.869049,813.473083 
	C467.864868,813.897644 470.829498,814.542542 473.908386,815.465942 
	C462.599457,814.245239 451.190521,812.645325 439.390991,810.943115 
z"/>
<path fill="#061C42" opacity="1.000000" stroke="none" 
	d="
M507.303101,552.036377 
	C506.702942,551.946838 505.367371,551.749634 505.184204,551.181030 
	C502.364136,542.428833 499.694031,533.628357 497.200104,524.418335 
	C497.411163,523.997559 497.823517,523.996521 497.823517,523.996521 
	C500.916931,533.249695 504.010315,542.502808 507.303101,552.036377 
z"/>
<path fill="#000B32" opacity="1.000000" stroke="none" 
	d="
M186.489334,625.852173 
	C186.100906,625.835632 186.069504,625.576294 186.045288,625.447937 
	C188.826355,624.547791 191.611328,623.211243 194.440659,623.109558 
	C203.049286,622.800171 211.675797,623.024292 220.293503,622.905701 
	C222.227875,622.879089 224.154709,622.303223 226.486938,621.850464 
	C225.268188,622.479614 223.666763,623.841309 222.023453,623.893860 
	C214.547653,624.133057 207.051727,623.793152 199.579956,624.088989 
	C195.329071,624.257324 191.110748,625.248230 186.489334,625.852173 
z"/>
<path fill="#08183E" opacity="1.000000" stroke="none" 
	d="
M497.848877,523.599976 
	C497.823517,523.996521 497.411163,523.997559 497.204956,523.998779 
	C495.338379,515.594421 493.677979,507.188812 492.041870,498.333160 
	C493.400208,503.922333 494.715332,509.965851 496.077789,515.998657 
	C496.622925,518.412415 497.272308,520.802612 497.848877,523.599976 
z"/>
<path fill="#061C42" opacity="1.000000" stroke="none" 
	d="
M528.568726,543.898010 
	C522.881165,547.499084 516.884521,551.252930 510.735413,554.737610 
	C510.147675,555.070618 508.608276,553.724243 507.575256,552.803589 
	C509.813629,552.224365 512.245911,552.546753 514.110962,551.666870 
	C518.946350,549.385803 523.532043,546.575378 528.568726,543.898010 
z"/>
<path fill="#0B1F43" opacity="1.000000" stroke="none" 
	d="
M541.117065,614.268433 
	C541.120911,613.601135 541.147644,612.260315 541.703003,611.984558 
	C547.889099,608.914124 554.156921,606.008240 560.792236,603.093872 
	C554.583069,606.783020 547.984314,610.436279 541.117065,614.268433 
z"/>
<path fill="#06254C" opacity="1.000000" stroke="none" 
	d="
M290.883972,728.504578 
	C295.134552,732.301147 299.506073,736.411133 303.843384,740.881409 
	C299.541077,737.100525 295.272980,732.959290 290.883972,728.504578 
z"/>
<path fill="#0B1F43" opacity="1.000000" stroke="none" 
	d="
M564.790039,601.351501 
	C569.448425,598.347107 574.422058,595.197510 579.780273,592.080444 
	C575.145020,595.144043 570.125061,598.175171 564.790039,601.351501 
z"/>
<path fill="#08183E" opacity="1.000000" stroke="none" 
	d="
M492.086792,497.614319 
	C491.441772,492.392883 490.739105,486.806091 490.362183,481.130005 
	C491.134979,486.443481 491.582031,491.846252 492.086792,497.614319 
z"/>
<path fill="#0B1F43" opacity="1.000000" stroke="none" 
	d="
M544.129150,628.545044 
	C538.584473,624.856384 536.627197,618.528320 540.131714,614.694824 
	C537.953918,617.771729 539.743896,620.369324 541.160950,622.985229 
	C542.106445,624.730774 543.089111,626.456177 544.129150,628.545044 
z"/>
<path fill="#0B1F43" opacity="1.000000" stroke="none" 
	d="
M580.428955,592.100708 
	C584.180237,589.464844 588.279419,586.752502 592.758911,584.065308 
	C589.018494,586.735046 584.897644,589.379639 580.428955,592.100708 
z"/>
<path fill="#000B32" opacity="1.000000" stroke="none" 
	d="
M220.059937,539.465149 
	C220.142029,539.002808 220.577469,538.992004 220.795395,538.989868 
	C221.014114,546.020386 221.014908,553.053101 221.016052,560.557739 
	C221.016403,561.029663 220.566956,561.015869 220.342438,561.004456 
	C220.071213,553.971191 220.024521,546.949341 220.059937,539.465149 
z"/>
<path fill="#0B1F43" opacity="1.000000" stroke="none" 
	d="
M557.317017,648.281006 
	C554.667969,644.916992 551.884033,641.238281 549.111938,637.191162 
	C551.809875,640.537292 554.496033,644.251770 557.317017,648.281006 
z"/>
<path fill="#06254C" opacity="1.000000" stroke="none" 
	d="
M328.981750,762.427246 
	C332.124207,764.278564 335.417786,766.433899 338.772980,768.934204 
	C335.600677,767.096558 332.366760,764.913940 328.981750,762.427246 
z"/>
<path fill="#0B1F43" opacity="1.000000" stroke="none" 
	d="
M666.414429,529.041138 
	C668.335083,526.956238 670.568848,524.751953 673.109253,522.714966 
	C671.186401,524.895386 668.956970,526.908569 666.414429,529.041138 
z"/>
<path fill="#08183E" opacity="1.000000" stroke="none" 
	d="
M694.587891,608.010498 
	C693.633606,610.830566 692.380676,613.832947 690.800415,616.888916 
	C691.744995,614.025940 693.017090,611.109375 694.587891,608.010498 
z"/>
<path fill="#06254C" opacity="1.000000" stroke="none" 
	d="
M307.767273,745.112915 
	C309.686279,746.418152 311.781769,747.969727 313.841309,749.883789 
	C311.851471,748.617310 309.897614,746.988281 307.767273,745.112915 
z"/>
<path fill="#0B1F43" opacity="1.000000" stroke="none" 
	d="
M549.112854,636.560913 
	C547.481628,634.457764 545.768677,632.013489 544.095459,629.191284 
	C545.767273,631.282166 547.399231,633.751038 549.112854,636.560913 
z"/>
<path fill="#0B1F43" opacity="1.000000" stroke="none" 
	d="
M611.407288,572.047974 
	C613.179626,570.449768 615.283142,568.765015 617.751221,567.073120 
	C615.990051,568.697754 613.864258,570.329590 611.407288,572.047974 
z"/>
<path fill="#0B1F43" opacity="1.000000" stroke="none" 
	d="
M659.415527,535.056580 
	C660.671936,533.606750 662.235596,532.046021 664.134583,530.630493 
	C662.887512,532.165649 661.305176,533.555725 659.415527,535.056580 
z"/>
<path fill="#0B1F43" opacity="1.000000" stroke="none" 
	d="
M567.048279,660.581543 
	C565.477600,659.107544 563.792175,657.320557 562.124573,655.167236 
	C563.739502,656.623352 565.336487,658.445923 567.048279,660.581543 
z"/>
<path fill="#06254C" opacity="1.000000" stroke="none" 
	d="
M338.937347,769.497803 
	C340.798187,770.298523 342.833832,771.384521 344.866943,772.834167 
	C342.946991,772.059631 341.029572,770.921387 338.937347,769.497803 
z"/>
<path fill="#06254C" opacity="1.000000" stroke="none" 
	d="
M280.888916,717.487793 
	C282.344116,718.720947 283.907074,720.259888 285.319946,722.119629 
	C283.778778,720.891541 282.387726,719.342529 280.888916,717.487793 
z"/>
<path fill="#0B1F43" opacity="1.000000" stroke="none" 
	d="
M593.411255,584.065430 
	C594.871399,582.794006 596.664917,581.450317 598.830566,580.126282 
	C597.383240,581.428345 595.563904,582.710815 593.411255,584.065430 
z"/>
<path fill="#0B1F43" opacity="1.000000" stroke="none" 
	d="
M638.069458,552.291626 
	C639.361511,551.006409 640.910339,549.553040 642.824341,548.116821 
	C641.568420,549.463806 639.947327,550.793640 638.069458,552.291626 
z"/>
<path fill="#102D50" opacity="1.000000" stroke="none" 
	d="
M417.005554,201.574768 
	C416.533356,202.516052 416.067963,203.078308 415.384216,203.814575 
	C415.828247,201.706360 416.490601,199.424149 417.459534,196.951904 
	C417.514862,198.239822 417.263580,199.717773 417.005554,201.574768 
z"/>
<path fill="#0B1F43" opacity="1.000000" stroke="none" 
	d="
M683.832397,513.298950 
	C685.055542,511.715485 686.554077,509.949677 688.450500,508.249634 
	C687.268188,509.915802 685.687927,511.516235 683.832397,513.298950 
z"/>
<path fill="#06254C" opacity="1.000000" stroke="none" 
	d="
M320.987457,756.332886 
	C322.374756,756.974731 323.900177,757.901794 325.251709,759.150269 
	C323.760406,758.520569 322.442993,757.569336 320.987457,756.332886 
z"/>
<path fill="#0B1F43" opacity="1.000000" stroke="none" 
	d="
M653.138062,540.296143 
	C653.841736,539.394348 654.786194,538.342896 656.083252,537.445801 
	C655.416931,538.448975 654.397888,539.297729 653.138062,540.296143 
z"/>
<path fill="#0B1F43" opacity="1.000000" stroke="none" 
	d="
M648.412109,544.082703 
	C649.341248,542.964355 650.569763,541.752869 652.109619,540.704346 
	C651.184509,541.908020 649.947998,542.948792 648.412109,544.082703 
z"/>
<path fill="#06254C" opacity="1.000000" stroke="none" 
	d="
M349.957031,776.478455 
	C351.421753,776.960632 353.065155,777.727417 354.810120,778.842224 
	C353.319702,778.381165 351.727722,777.572083 349.957031,776.478455 
z"/>
<path fill="#0B1F43" opacity="1.000000" stroke="none" 
	d="
M626.205261,561.323975 
	C627.118286,560.347961 628.287354,559.226685 629.829468,558.126587 
	C628.955505,559.158081 627.708374,560.168396 626.205261,561.323975 
z"/>
<path fill="#08183E" opacity="1.000000" stroke="none" 
	d="
M581.267578,675.931763 
	C579.987732,674.979004 578.529846,673.785400 577.070251,672.233765 
	C578.408875,673.147522 579.749146,674.419189 581.267578,675.931763 
z"/>
<path fill="#06254C" opacity="1.000000" stroke="none" 
	d="
M344.985474,773.438843 
	C346.441010,773.951904 348.070251,774.751404 349.777649,775.906494 
	C348.290222,775.416443 346.724731,774.570923 344.985474,773.438843 
z"/>
<path fill="#06254C" opacity="1.000000" stroke="none" 
	d="
M264.659302,697.127014 
	C265.641418,698.055054 266.768799,699.245178 267.881470,700.806030 
	C266.846039,699.914246 265.825317,698.651672 264.659302,697.127014 
z"/>
<path fill="#0B1F43" opacity="1.000000" stroke="none" 
	d="
M677.380737,519.139404 
	C677.922241,518.233154 678.760498,517.205811 679.973877,516.251282 
	C679.458618,517.222229 678.568054,518.120300 677.380737,519.139404 
z"/>
<path fill="#0B1F43" opacity="1.000000" stroke="none" 
	d="
M572.188477,666.520508 
	C571.027954,665.607117 569.760498,664.394470 568.640381,662.869324 
	C569.885620,663.778320 570.983643,664.999817 572.188477,666.520508 
z"/>
<path fill="#08183E" opacity="1.000000" stroke="none" 
	d="
M587.253906,681.887695 
	C586.114563,681.134644 584.808350,680.151855 583.652344,678.847412 
	C584.897339,679.569946 585.992126,680.613953 587.253906,681.887695 
z"/>
<path fill="#0B1F43" opacity="1.000000" stroke="none" 
	d="
M618.374634,567.027649 
	C619.186951,566.106140 620.313110,565.098694 621.804443,564.102051 
	C621.009277,565.055908 619.848877,565.998779 618.374634,567.027649 
z"/>
<path fill="#06254C" opacity="1.000000" stroke="none" 
	d="
M325.804626,760.105713 
	C326.707794,760.394287 327.796570,760.899963 328.883667,761.789917 
	C327.918030,761.557068 326.954132,760.939941 325.804626,760.105713 
z"/>
<path fill="#0B1F43" opacity="1.000000" stroke="none" 
	d="
M562.115356,654.574463 
	C561.299622,653.976135 560.396057,653.089294 559.639221,651.868896 
	C560.533142,652.452209 561.280396,653.369141 562.115356,654.574463 
z"/>
<path fill="#061C42" opacity="1.000000" stroke="none" 
	d="
M532.127563,541.627808 
	C531.465027,542.298279 530.534180,543.126343 529.219055,543.921753 
	C529.842896,543.187866 530.851074,542.486633 532.127563,541.627808 
z"/>
<path fill="#06254C" opacity="1.000000" stroke="none" 
	d="
M274.906952,710.428162 
	C275.729584,711.019714 276.646027,711.902161 277.456512,713.135132 
	C276.567291,712.563477 275.784058,711.641296 274.906952,710.428162 
z"/>
<path fill="#102D50" opacity="1.000000" stroke="none" 
	d="
M488.752014,197.706116 
	C488.776520,198.011520 488.372925,198.021103 488.170715,198.016907 
	C487.389740,197.102890 486.810944,196.193039 486.342957,194.948120 
	C487.211639,195.542282 487.969604,196.471481 488.752014,197.706116 
z"/>
<path fill="#0B1F43" opacity="1.000000" stroke="none" 
	d="
M561.424561,603.134277 
	C561.954712,602.530273 562.793701,601.877502 564.007568,601.378906 
	C563.499390,602.050598 562.616333,602.568054 561.424561,603.134277 
z"/>
<path fill="#0B1F43" opacity="1.000000" stroke="none" 
	d="
M559.325562,650.979248 
	C558.726013,650.585083 557.976196,649.957520 557.340210,648.964722 
	C558.027771,649.314880 558.601501,650.030334 559.325562,650.979248 
z"/>
<path fill="#0B1F43" opacity="1.000000" stroke="none" 
	d="
M634.190918,555.347046 
	C634.554871,554.754395 635.141968,554.037170 636.078491,553.489624 
	C635.756714,554.180420 635.085449,554.701416 634.190918,555.347046 
z"/>
<path fill="#0B1F43" opacity="1.000000" stroke="none" 
	d="
M630.403809,558.145508 
	C631.017761,557.331055 631.917114,556.438721 633.102722,555.721069 
	C632.489075,556.619751 631.589111,557.343750 630.403809,558.145508 
z"/>
<path fill="#06254C" opacity="1.000000" stroke="none" 
	d="
M270.667358,705.122681 
	C271.265656,705.494812 271.997772,706.097351 272.592896,707.059509 
	C271.904327,706.730469 271.352753,706.041687 270.667358,705.122681 
z"/>
<path fill="#000B32" opacity="1.000000" stroke="none" 
	d="
M227.880310,620.236389 
	C227.838211,620.652344 227.603317,621.277039 227.063507,621.871338 
	C227.068222,621.375732 227.377869,620.910400 227.880310,620.236389 
z"/>
<path fill="#0B1F43" opacity="1.000000" stroke="none" 
	d="
M608.394287,574.103271 
	C608.874023,573.481567 609.661987,572.780579 610.794312,572.082520 
	C610.326538,572.731567 609.514526,573.377747 608.394287,574.103271 
z"/>
<path fill="#06254C" opacity="1.000000" stroke="none" 
	d="
M262.841309,694.420471 
	C263.375488,694.692383 263.969788,695.227478 264.367310,696.079712 
	C263.747498,695.825867 263.324463,695.254700 262.841309,694.420471 
z"/>
<path fill="#06254C" opacity="1.000000" stroke="none" 
	d="
M267.889465,701.401245 
	C268.436584,701.666992 269.054321,702.208862 269.524170,703.093872 
	C268.904236,702.850403 268.432159,702.263855 267.889465,701.401245 
z"/>
<path fill="#06254C" opacity="1.000000" stroke="none" 
	d="
M277.669250,713.906616 
	C278.308960,714.253906 279.103638,714.847778 279.887115,715.803589 
	C279.192017,715.494629 278.508118,714.823914 277.669250,713.906616 
z"/>
<path fill="#06254C" opacity="1.000000" stroke="none" 
	d="
M317.744934,753.810303 
	C318.329590,753.907776 319.097809,754.236755 319.875641,754.949951 
	C319.233032,754.903320 318.580780,754.472595 317.744934,753.810303 
z"/>
<path fill="#0B1F43" opacity="1.000000" stroke="none" 
	d="
M599.421997,580.144165 
	C599.906189,579.516052 600.700562,578.806274 601.845337,578.118469 
	C601.374512,578.781128 600.553406,579.421875 599.421997,580.144165 
z"/>
<path fill="#0B1F43" opacity="1.000000" stroke="none" 
	d="
M605.410522,576.129272 
	C605.890930,575.502075 606.681641,574.796204 607.820068,574.102173 
	C607.352112,574.759460 606.536499,575.405029 605.410522,576.129272 
z"/>
<path fill="#0B1F43" opacity="1.000000" stroke="none" 
	d="
M622.381592,564.096802 
	C622.654663,563.554871 623.203491,562.938660 624.094666,562.472900 
	C623.843811,563.089722 623.250549,563.556152 622.381592,564.096802 
z"/>
<path fill="#0B1F43" opacity="1.000000" stroke="none" 
	d="
M602.418701,578.140198 
	C602.901306,577.511963 603.694397,576.802795 604.836853,576.112427 
	C604.367188,576.773926 603.548218,577.416626 602.418701,578.140198 
z"/>
<path fill="#061C42" opacity="1.000000" stroke="none" 
	d="
M477.734314,814.998779 
	C478.073059,815.007324 478.044342,815.462036 478.023926,815.688904 
	C477.249268,815.946411 476.495026,815.976990 475.369873,815.930420 
	C475.797882,815.565491 476.596741,815.277893 477.734314,814.998779 
z"/>
<path fill="#102D50" opacity="1.000000" stroke="none" 
	d="
M419.125824,194.728333 
	C419.038452,195.278336 418.710999,195.986282 418.051636,196.751190 
	C418.108398,196.167511 418.497040,195.526901 419.125824,194.728333 
z"/>
<path fill="#003054" opacity="1.000000" stroke="none" 
	d="
M488.648254,452.641235 
	C488.366791,452.091583 488.177795,451.208038 488.084747,449.983795 
	C488.367401,450.531189 488.554077,451.419281 488.648254,452.641235 
z"/>
<path fill="#06254C" opacity="1.000000" stroke="none" 
	d="
M315.761658,752.090637 
	C316.276093,752.197266 316.935516,752.506470 317.526733,753.158264 
	C316.941223,753.098328 316.423920,752.695801 315.761658,752.090637 
z"/>
<path fill="#08183E" opacity="1.000000" stroke="none" 
	d="
M583.321289,677.994751 
	C582.810242,677.846741 582.164612,677.504578 581.667725,676.846313 
	C582.273193,676.953674 582.729919,677.377136 583.321289,677.994751 
z"/>
<path fill="#08183E" opacity="1.000000" stroke="none" 
	d="
M576.019165,670.649963 
	C575.454529,670.455688 574.784973,669.978149 574.123169,669.150085 
	C574.725403,669.321960 575.319763,669.844299 576.019165,670.649963 
z"/>
<path fill="#0B1F43" opacity="1.000000" stroke="none" 
	d="
M574.115417,668.595093 
	C573.572937,668.373901 572.921082,667.863831 572.223694,667.028320 
	C572.787415,667.237305 573.396790,667.771729 574.115417,668.595093 
z"/>
<path fill="#08183E" opacity="1.000000" stroke="none" 
	d="
M695.367188,502.014740 
	C695.548157,501.448883 696.009338,500.765747 696.819275,500.061188 
	C696.661133,500.658966 696.154236,501.278229 695.367188,502.014740 
z"/>
<path fill="#0B1F43" opacity="1.000000" stroke="none" 
	d="
M681.625244,515.299622 
	C681.841675,514.742249 682.321777,514.069214 683.144409,513.473206 
	C682.954285,514.094788 682.421631,514.639404 681.625244,515.299622 
z"/>
<path fill="#0B1F43" opacity="1.000000" stroke="none" 
	d="
M643.387085,548.123535 
	C643.671387,547.598450 644.237915,546.986023 645.134399,546.453430 
	C644.866028,547.034302 644.267639,547.535278 643.387085,548.123535 
z"/>
<path fill="#0B1F43" opacity="1.000000" stroke="none" 
	d="
M658.018860,536.323853 
	C658.046448,536.012329 658.278870,535.562805 658.839478,535.112183 
	C658.853027,535.469360 658.538330,535.827576 658.018860,536.323853 
z"/>
<path fill="#08183E" opacity="1.000000" stroke="none" 
	d="
M638.942444,458.691162 
	C638.933289,459.001465 638.728882,459.453979 638.199768,459.919037 
	C638.165771,459.565521 638.456482,459.199463 638.942444,458.691162 
z"/>
<path fill="#06254C" opacity="1.000000" stroke="none" 
	d="
M286.714539,724.095764 
	C287.023163,724.103760 287.455841,724.311218 287.885254,724.838257 
	C287.534149,724.870361 287.186371,724.582764 286.714539,724.095764 
z"/>
<path fill="#06254C" opacity="1.000000" stroke="none" 
	d="
M272.632080,707.733276 
	C272.972107,707.800842 273.437286,708.117065 273.922913,708.763794 
	C273.548004,708.723572 273.152618,708.352783 272.632080,707.733276 
z"/>
<path fill="#08183E" opacity="1.000000" stroke="none" 
	d="
M642.668701,454.927307 
	C642.635498,455.365875 642.374756,455.886627 641.822876,456.270081 
	C641.834839,455.758362 642.138000,455.383911 642.668701,454.927307 
z"/>
<path fill="#06254C" opacity="1.000000" stroke="none" 
	d="
M261.624908,692.891968 
	C261.948242,692.954224 262.406769,693.244629 262.849335,693.872986 
	C262.475616,693.847290 262.117859,693.483704 261.624908,692.891968 
z"/>
<path fill="#06254C" opacity="1.000000" stroke="none" 
	d="
M305.901001,743.363037 
	C306.347198,743.382568 306.869446,743.632690 307.260315,744.174927 
	C306.744965,744.175903 306.361023,743.884766 305.901001,743.363037 
z"/>
<path fill="#08183E" opacity="1.000000" stroke="none" 
	d="
M644.945068,452.689178 
	C644.935181,453.000153 644.729431,453.453461 644.198547,453.918701 
	C644.165344,453.564270 644.457336,453.197906 644.945068,452.689178 
z"/>
<path fill="#08183E" opacity="1.000000" stroke="none" 
	d="
M589.122559,683.694824 
	C588.676086,683.659485 588.136169,683.389771 587.726013,682.817383 
	C588.246887,682.829956 588.638000,683.145264 589.122559,683.694824 
z"/>
<path fill="#06254C" opacity="1.000000" stroke="none" 
	d="
M313.844849,750.429749 
	C314.298706,750.431274 314.834900,750.658081 315.236145,751.179932 
	C314.709869,751.201660 314.318512,750.928345 313.844849,750.429749 
z"/>
<path fill="#08183E" opacity="1.000000" stroke="none" 
	d="
M649.665527,447.919739 
	C649.636597,448.365295 649.375427,448.891846 648.818115,449.284973 
	C648.825745,448.767914 649.129517,448.384308 649.665527,447.919739 
z"/>
<path fill="#0B1F43" opacity="1.000000" stroke="none" 
	d="
M647.007141,545.328491 
	C647.039124,545.015686 647.276978,544.564148 647.844971,544.115601 
	C647.854370,544.475647 647.533691,544.832703 647.007141,545.328491 
z"/>
<path fill="#0B1F43" opacity="1.000000" stroke="none" 
	d="
M568.335632,662.012695 
	C568.019653,661.980103 567.564575,661.738953 567.109619,661.167175 
	C567.471985,661.159058 567.834229,661.481567 568.335632,662.012695 
z"/>
<path fill="#08183E" opacity="1.000000" stroke="none" 
	d="
M698.273682,499.065155 
	C698.322815,498.633148 698.605713,498.107819 699.187622,497.709534 
	C699.160156,498.215027 698.833862,498.593445 698.273682,499.065155 
z"/>
<path fill="#0B1F43" opacity="1.000000" stroke="none" 
	d="
M675.079895,521.302124 
	C675.104004,520.990540 675.332092,520.538025 675.891724,520.075928 
	C675.910156,520.431274 675.596985,520.796204 675.079895,521.302124 
z"/>
<path fill="#08183E" opacity="1.000000" stroke="none" 
	d="
M689.453430,507.782013 
	C689.517578,507.273254 689.929443,506.696167 690.731079,506.093079 
	C690.681030,506.615906 690.241089,507.164795 689.453430,507.782013 
z"/>
<path fill="#08183E" opacity="1.000000" stroke="none" 
	d="
M691.298645,506.043671 
	C691.342285,505.609497 691.616150,505.097992 692.177368,504.724640 
	C692.152771,505.230621 691.840820,505.598480 691.298645,506.043671 
z"/>
<path fill="#0B1F43" opacity="1.000000" stroke="none" 
	d="
M664.986450,530.337646 
	C665.017578,530.020996 665.258484,529.564636 665.830078,529.105957 
	C665.839233,529.468445 665.517761,529.833191 664.986450,530.337646 
z"/>
<path fill="#08183E" opacity="1.000000" stroke="none" 
	d="
M694.061646,503.303741 
	C694.074402,502.998901 694.279236,502.551025 694.807983,502.095703 
	C694.839172,502.445709 694.546448,502.803223 694.061646,503.303741 
z"/>
<path fill="#06254C" opacity="1.000000" stroke="none" 
	d="
M287.917419,725.355042 
	C288.130859,725.292908 288.438568,725.496765 288.836853,725.970337 
	C288.622162,726.033752 288.316925,725.827393 287.917419,725.355042 
z"/>
<path fill="#06254C" opacity="1.000000" stroke="none" 
	d="
M289.808746,727.369080 
	C290.029266,727.299988 290.357788,727.498169 290.767517,727.982056 
	C290.538055,728.057312 290.227417,727.846802 289.808746,727.369080 
z"/>
<path fill="#08183E" opacity="1.000000" stroke="none" 
	d="
M764.155884,606.591064 
	C763.925964,606.682007 763.596497,606.509033 763.183838,606.058472 
	C763.419189,605.963013 763.737793,606.145081 764.155884,606.591064 
z"/>
<path fill="#06254C" opacity="1.000000" stroke="none" 
	d="
M285.874725,722.981812 
	C285.835724,722.971375 286.071014,722.635986 286.071014,722.635986 
	C286.071014,722.635986 286.356232,722.924866 286.172058,723.022095 
	C285.987854,723.119263 285.913727,722.992249 285.874725,722.981812 
z"/>
<path fill="#08183E" opacity="1.000000" stroke="none" 
	d="
M639.991455,457.820679 
	C640.027771,457.763153 640.386353,458.074310 640.386353,458.074310 
	C640.386353,458.074310 640.057190,458.412506 639.901611,458.227478 
	C639.745972,458.042419 639.955078,457.878235 639.991455,457.820679 
z"/>
<path fill="#08183E" opacity="1.000000" stroke="none" 
	d="
M640.979980,456.840332 
	C641.026123,456.781738 641.378174,457.093323 641.378174,457.093323 
	C641.378174,457.093323 641.055054,457.431458 640.884521,457.263519 
	C640.714050,457.095581 640.933838,456.898956 640.979980,456.840332 
z"/>
<path fill="#06254C" opacity="1.000000" stroke="none" 
	d="
M303.841919,741.425049 
	C304.063232,741.338867 304.384796,741.509766 304.794952,741.949341 
	C304.569733,742.039429 304.255920,741.860779 303.841919,741.425049 
z"/>
<path fill="#08183E" opacity="1.000000" stroke="none" 
	d="
M651.619507,445.871948 
	C651.693420,446.086517 651.509094,446.404602 651.054810,446.813171 
	C650.976990,446.594238 651.169128,446.284851 651.619507,445.871948 
z"/>
<path fill="#06254C" opacity="1.000000" stroke="none" 
	d="
M304.882446,742.381348 
	C305.099274,742.305359 305.410339,742.487244 305.809021,742.933716 
	C305.589996,743.011963 305.283325,742.825623 304.882446,742.381348 
z"/>
<path fill="#0B1F43" opacity="1.000000" stroke="none" 
	d="
M624.765320,562.376709 
	C624.712769,562.148621 624.789795,561.875000 625.064209,561.765869 
	C625.178101,562.099365 625.055847,562.233032 624.765320,562.376709 
z"/>
<path fill="#0B1F43" opacity="1.000000" stroke="none" 
	d="
M636.808655,553.357788 
	C636.742065,553.130432 636.813293,552.848694 637.104736,552.711609 
	C637.244141,553.043701 637.117981,553.192749 636.808655,553.357788 
z"/>
<path fill="#08183E" opacity="1.000000" stroke="none" 
	d="
M655.010376,442.150330 
	C655.279053,442.253448 655.353882,442.474213 655.428711,442.694946 
	C655.304077,442.721466 655.179382,442.747955 654.862915,442.735962 
	C654.671021,442.697449 654.816467,442.267914 655.010376,442.150330 
z"/>
<path fill="#08183E" opacity="1.000000" stroke="none" 
	d="
M643.693115,453.951477 
	C643.751709,454.157867 643.551331,454.453918 643.089111,454.834106 
	C643.029541,454.625916 643.231873,454.333557 643.693115,453.951477 
z"/>
<path fill="#08183E" opacity="1.000000" stroke="none" 
	d="
M654.481567,442.761414 
	C654.581482,442.992798 654.428345,443.338379 653.986328,443.758118 
	C653.874451,443.513397 654.051453,443.194519 654.481567,442.761414 
z"/>
<path fill="#08183E" opacity="1.000000" stroke="none" 
	d="
M646.002563,451.813599 
	C646.052673,451.754272 646.389832,452.085754 646.389832,452.085754 
	C646.389832,452.085754 646.060730,452.421722 645.892456,452.250244 
	C645.724121,452.078735 645.952393,451.872925 646.002563,451.813599 
z"/>
<path fill="#08183E" opacity="1.000000" stroke="none" 
	d="
M653.563354,443.811340 
	C653.646240,444.036102 653.469727,444.367157 653.011597,444.777100 
	C652.921265,444.543182 653.112610,444.230377 653.563354,443.811340 
z"/>
<path fill="#08183E" opacity="1.000000" stroke="none" 
	d="
M646.997437,450.819092 
	C647.048462,450.760101 647.387268,451.089417 647.387268,451.089417 
	C647.387268,451.089417 647.057739,451.424713 646.887695,451.254761 
	C646.717590,451.084778 646.946350,450.878113 646.997437,450.819092 
z"/>
<path fill="#08183E" opacity="1.000000" stroke="none" 
	d="
M647.999756,449.821198 
	C648.048401,449.762695 648.390869,450.087372 648.390869,450.087372 
	C648.390869,450.087372 648.061523,450.421814 647.893677,450.250549 
	C647.725830,450.079254 647.951172,449.879700 647.999756,449.821198 
z"/>
<path fill="#08183E" opacity="1.000000" stroke="none" 
	d="
M652.589050,444.841705 
	C652.669556,445.062256 652.491577,445.387512 652.038635,445.798340 
	C651.952637,445.571411 652.141602,445.258911 652.589050,444.841705 
z"/>
<path fill="#08183E" opacity="1.000000" stroke="none" 
	d="
M650.638245,446.892883 
	C650.712952,447.106201 650.529480,447.421112 650.081299,447.832031 
	C650.004456,447.616852 650.192261,447.305634 650.638245,446.892883 
z"/>
<path fill="#08183E" opacity="1.000000" stroke="none" 
	d="
M703.999939,493.182312 
	C703.949707,493.241333 703.610107,492.912048 703.610107,492.912048 
	C703.610107,492.912048 703.939514,492.575958 704.108704,492.746887 
	C704.277893,492.917847 704.050171,493.123260 703.999939,493.182312 
z"/>
<path fill="#0B1F43" opacity="1.000000" stroke="none" 
	d="
M674.030518,522.067322 
	C674.031067,522.102295 673.663208,521.919983 673.663208,521.919983 
	C673.663208,521.919983 673.938354,521.620361 674.042847,521.801636 
	C674.147339,521.982910 674.029907,522.032349 674.030518,522.067322 
z"/>
<path fill="#0B1F43" opacity="1.000000" stroke="none" 
	d="
M680.544800,516.278381 
	C680.467224,516.036438 680.638611,515.703308 681.110718,515.361816 
	C681.205566,515.631348 680.999634,515.909302 680.544800,516.278381 
z"/>
<path fill="#0B1F43" opacity="1.000000" stroke="none" 
	d="
M656.751343,537.379395 
	C656.691528,537.143555 656.782288,536.853882 657.099243,536.710083 
	C657.232422,537.055908 657.091187,537.212402 656.751343,537.379395 
z"/>
<path fill="#08183E" opacity="1.000000" stroke="none" 
	d="
M693.010132,504.161560 
	C692.971619,504.217255 692.621277,503.915009 692.621277,503.915009 
	C692.621277,503.915009 692.941650,503.584930 693.097839,503.761139 
	C693.254028,503.937347 693.048584,504.105865 693.010132,504.161560 
z"/>
<path fill="#061C42" opacity="1.000000" stroke="none" 
	d="
M533.643921,540.755066 
	C533.644592,540.980103 533.391418,541.275574 532.837036,541.491455 
	C532.820496,541.216370 533.105286,541.020935 533.643921,540.755066 
z"/>
<path fill="#08183E" opacity="1.000000" stroke="none" 
	d="
M699.991577,497.200317 
	C699.931885,497.261536 699.604248,496.911530 699.604248,496.911530 
	C699.604248,496.911530 699.939514,496.572021 700.117798,496.737976 
	C700.296082,496.903900 700.051208,497.139099 699.991577,497.200317 
z"/>
<path fill="#08183E" opacity="1.000000" stroke="none" 
	d="
M700.991211,496.199280 
	C700.932251,496.260315 700.605042,495.911469 700.605042,495.911469 
	C700.605042,495.911469 700.939270,495.572662 701.116455,495.738892 
	C701.293640,495.905151 701.050232,496.138214 700.991211,496.199280 
z"/>
<path fill="#0B1F43" opacity="1.000000" stroke="none" 
	d="
M645.712830,546.388550 
	C645.657043,546.150513 645.763977,545.854553 646.108032,545.696411 
	C646.236389,546.044983 646.079834,546.210449 645.712830,546.388550 
z"/>
<path fill="#08183E" opacity="1.000000" stroke="none" 
	d="
M577.042847,671.694702 
	C576.839905,671.757996 576.541870,671.563660 576.143250,671.115601 
	C576.344360,671.053589 576.646118,671.245422 577.042847,671.694702 
z"/>
<path fill="#08183E" opacity="1.000000" stroke="none" 
	d="
M701.991821,495.198792 
	C701.932312,495.259827 701.605652,494.910828 701.605652,494.910828 
	C701.605652,494.910828 701.940063,494.572449 702.117798,494.738007 
	C702.295532,494.903564 702.051331,495.137756 701.991821,495.198792 
z"/>
<path fill="#08183E" opacity="1.000000" stroke="none" 
	d="
M702.990601,494.197876 
	C702.933777,494.258179 702.606445,493.912170 702.606445,493.912170 
	C702.606445,493.912170 702.939880,493.575256 703.113281,493.744171 
	C703.286743,493.913086 703.047363,494.137573 702.990601,494.197876 
z"/>
<path fill="#06254C" opacity="1.000000" stroke="none" 
	d="
M279.898529,716.360840 
	C280.117249,716.297485 280.417053,716.497131 280.783020,716.968201 
	C280.559296,717.034363 280.269470,716.829102 279.898529,716.360840 
z"/>
<path fill="#08183E" opacity="1.000000" stroke="none" 
	d="
M591.156006,685.584351 
	C590.938843,685.664429 590.608398,685.484009 590.177734,685.029907 
	C590.399170,684.945496 590.721008,685.134705 591.156006,685.584351 
z"/>
<path fill="#08183E" opacity="1.000000" stroke="none" 
	d="
M705.002502,492.189758 
	C704.940918,492.251923 704.607849,491.904938 704.607849,491.904938 
	C704.607849,491.904938 704.942200,491.562164 705.126770,491.722534 
	C705.311340,491.882904 705.064087,492.127625 705.002502,492.189758 
z"/>
<path fill="#08183E" opacity="1.000000" stroke="none" 
	d="
M592.202393,686.519348 
	C591.976257,686.611511 591.641113,686.451416 591.230103,686.010010 
	C591.467224,685.908081 591.780334,686.087585 592.202393,686.519348 
z"/>
<path fill="#08183E" opacity="1.000000" stroke="none" 
	d="
M593.071045,687.688171 
	C592.865967,687.720520 592.578979,687.488647 592.258545,686.972412 
	C592.479736,686.933411 592.734436,687.178650 593.071045,687.688171 
z"/>
<path fill="#08183E" opacity="1.000000" stroke="none" 
	d="
M593.763184,688.118896 
	C593.700867,688.237000 593.421448,688.229980 593.103516,688.038330 
	C593.225403,687.900330 593.385803,687.947083 593.763184,688.118896 
z"/>
<path fill="#08183E" opacity="1.000000" stroke="none" 
	d="
M705.965942,491.222626 
	C705.776306,491.073547 705.623169,490.896637 705.469971,490.719727 
	C705.588684,490.743561 705.707397,490.767395 705.928345,490.949280 
	C706.030518,491.107361 706.002380,491.194763 705.965942,491.222626 
z"/>
<path fill="#08183E" opacity="1.000000" stroke="none" 
	d="
M631.566406,465.808472 
	C631.644775,465.993103 631.492859,466.252625 631.196106,466.393738 
	C631.051331,466.275360 631.335999,465.883331 631.566406,465.808472 
z"/>
<path fill="#08183E" opacity="1.000000" stroke="none" 
	d="
M632.605713,464.843964 
	C632.671021,465.064606 632.473572,465.383362 631.990967,465.766968 
	C631.918213,465.535217 632.130615,465.238647 632.605713,464.843964 
z"/>
<path fill="#06254C" opacity="1.000000" stroke="none" 
	d="
M269.630188,703.770508 
	C269.855896,703.713440 270.127411,703.790588 270.247986,704.071289 
	C269.917511,704.196045 269.777191,704.072693 269.630188,703.770508 
z"/>
<path fill="#08183E" opacity="1.000000" stroke="none" 
	d="
M633.619263,463.869049 
	C633.689148,464.089020 633.496887,464.406708 633.025024,464.797485 
	C632.949280,464.569305 633.153198,464.268036 633.619263,463.869049 
z"/>
<path fill="#06254C" opacity="1.000000" stroke="none" 
	d="
M273.968445,709.306396 
	C274.183746,709.253357 274.464020,709.466125 274.814514,709.940796 
	C274.600983,709.992554 274.317230,709.782410 273.968445,709.306396 
z"/>
<path fill="#08183E" opacity="1.000000" stroke="none" 
	d="
M634.662720,462.862305 
	C634.725891,463.075623 634.523926,463.397247 634.041992,463.806213 
	C633.973877,463.585907 634.185791,463.278259 634.662720,462.862305 
z"/>
<path fill="#08183E" opacity="1.000000" stroke="none" 
	d="
M637.690063,459.954407 
	C637.741028,460.159149 637.525513,460.456543 637.043152,460.845673 
	C636.992065,460.640625 637.207764,460.343842 637.690063,459.954407 
z"/>
<path fill="#FEFFFF" opacity="1.000000" stroke="none" 
	d="
M291.660461,499.040955 
	C304.714020,448.969910 333.340057,409.800079 375.939362,381.053528 
	C387.044891,373.559448 400.095001,368.946930 412.999817,363.121429 
	C414.163361,364.740662 414.940582,366.249084 414.942017,367.758240 
	C414.979980,408.218994 414.940918,448.679718 419.061035,489.413086 
	C419.634521,493.689240 420.180054,497.569214 420.949554,501.404266 
	C424.334503,518.275024 427.784180,535.132812 431.213623,552.377197 
	C434.187073,561.796875 437.271057,570.800537 440.010895,579.907715 
	C440.446655,581.356262 439.334747,583.270447 438.938354,584.969360 
	C438.938354,584.969360 438.985138,585.006226 438.615784,585.045410 
	C433.432617,587.005859 428.618744,588.927124 423.804901,590.848328 
	C423.804901,590.848328 423.895081,590.902771 423.650085,590.855225 
	C423.405090,590.807739 422.999451,591.057251 422.614929,591.046021 
	C405.818939,596.067627 389.407410,601.100525 372.995880,606.133423 
	C370.234497,606.762756 367.473114,607.392090 363.956909,608.182312 
	C347.317200,611.179565 331.484924,614.384399 315.520386,616.662415 
	C309.542023,617.515442 303.067230,619.579468 297.113953,615.820251 
	C297.113953,615.820251 297.090668,615.920410 297.041931,615.656250 
	C296.682098,615.210083 296.371002,615.028137 296.059937,614.846130 
	C296.059937,614.846130 296.050232,614.960205 296.046875,614.640015 
	C295.722870,613.836243 295.402222,613.352722 295.081573,612.869141 
	C295.081573,612.869141 295.064667,612.961792 295.053955,612.558472 
	C292.719452,603.731079 290.395721,595.306946 288.071960,586.882874 
	C288.071960,586.882874 288.056702,586.970703 288.073975,586.646362 
	C287.752869,584.506836 287.414520,582.691650 287.076141,580.876404 
	C287.076141,580.876404 287.058929,580.973328 287.047485,580.613220 
	C287.064880,578.778625 287.153137,577.302551 287.113342,575.829895 
	C286.762268,562.830383 286.224243,549.833130 286.095093,536.831665 
	C286.036133,530.901306 286.770874,524.962952 287.145630,519.028259 
	C287.145630,519.028259 287.054077,519.026794 287.404480,518.878540 
	C289.056763,512.167236 290.358612,505.604095 291.660461,499.040955 
z"/>
<path fill="#FEFEFE" opacity="1.000000" stroke="none" 
	d="
M370.979828,676.841980 
	C394.918304,670.425537 418.889343,664.126953 442.776062,657.523376 
	C450.257324,655.455139 457.602905,652.799072 464.836975,649.968384 
	C469.543304,648.126953 472.538971,649.113098 475.319061,653.300842 
	C483.578278,665.742004 491.807861,678.222534 500.603912,690.282959 
	C513.297607,707.687561 528.352051,722.997009 544.231384,737.509094 
	C545.363953,738.544067 546.098572,740.014465 546.964111,741.811523 
	C546.798279,742.574341 546.686829,742.808044 546.575562,743.041931 
	C546.575562,743.041931 546.272217,743.227478 545.911865,743.582764 
	C537.366333,745.673889 529.181152,747.409668 520.652466,749.072632 
	C519.420105,749.279358 518.547913,749.721436 517.639893,749.814575 
	C495.591949,752.076782 473.714386,751.071106 452.040802,746.301453 
	C445.618683,744.557556 439.196594,742.813660 432.051239,740.933838 
	C422.892822,737.681702 414.457642,734.565491 406.022461,731.449280 
	C382.231598,720.455688 360.542053,706.351501 341.867157,687.851135 
	C340.515625,686.512207 339.932953,684.397156 339.505981,682.336548 
	C350.339355,680.300781 360.659607,678.571411 370.979828,676.841980 
z"/>
<path fill="#061C42" opacity="1.000000" stroke="none" 
	d="
M419.136169,488.996277 
	C414.940918,448.679718 414.979980,408.218994 414.942017,367.758240 
	C414.940582,366.249084 414.163361,364.740662 413.378906,363.039001 
	C414.010193,363.086243 415.726685,363.102112 415.884369,363.605896 
	C416.515839,365.623138 416.933777,367.790161 416.946686,369.904724 
	C417.033966,384.210358 416.866760,398.518280 417.036896,412.822449 
	C417.222443,428.421051 417.419922,444.028229 418.122101,459.608704 
	C418.552246,469.152985 419.940704,478.654022 420.638733,488.589111 
	C419.964539,489.001251 419.550354,488.998779 419.136169,488.996277 
z"/>
<path fill="#0B1F43" opacity="1.000000" stroke="none" 
	d="
M297.128296,616.212646 
	C303.067230,619.579468 309.542023,617.515442 315.520386,616.662415 
	C331.484924,614.384399 347.317200,611.179565 363.583344,608.313538 
	C360.263916,609.589417 356.657532,611.507507 352.846191,612.094177 
	C336.468903,614.615356 320.045135,616.857300 303.598175,618.873901 
	C301.569550,619.122559 299.300354,617.409180 297.128296,616.212646 
z"/>
<path fill="#0B1F43" opacity="1.000000" stroke="none" 
	d="
M419.061035,489.413116 
	C419.550354,488.998779 419.964539,489.001251 420.689362,489.003723 
	C423.098663,502.489532 425.053101,516.000061 427.353638,529.451416 
	C428.600891,536.744202 430.437775,543.936218 431.806091,551.584473 
	C431.603516,551.995361 431.210419,551.995300 431.210388,551.995300 
	C427.784180,535.132812 424.334503,518.275024 420.949554,501.404266 
	C420.180054,497.569214 419.634521,493.689240 419.061035,489.413116 
z"/>
<path fill="#0B1F43" opacity="1.000000" stroke="none" 
	d="
M286.818726,519.267700 
	C286.770874,524.962952 286.036133,530.901306 286.095093,536.831665 
	C286.224243,549.833130 286.762268,562.830383 287.113342,575.829895 
	C287.153137,577.302551 287.064880,578.778625 287.096680,580.612061 
	C286.451721,578.348938 285.320404,575.760681 285.109314,573.099426 
	C283.689087,555.195984 283.064148,537.293274 286.818726,519.267700 
z"/>
<path fill="#08183E" opacity="1.000000" stroke="none" 
	d="
M452.128998,746.649658 
	C473.714386,751.071106 495.591949,752.076782 517.639893,749.814575 
	C518.547913,749.721436 519.420105,749.279358 520.655518,749.378723 
	C521.000488,750.165527 520.999023,750.573486 520.997559,750.981384 
	C507.734253,751.323914 494.437378,752.386108 481.218750,751.770142 
	C471.498535,751.317261 461.880676,748.668274 452.128998,746.649658 
z"/>
<path fill="#0B1F43" opacity="1.000000" stroke="none" 
	d="
M373.256836,606.391724 
	C389.407410,601.100525 405.818939,596.067627 422.621796,591.285034 
	C423.013153,591.535278 423.033875,592.013062 423.033875,592.013062 
	C409.387604,596.342590 395.757690,600.724976 382.081299,604.957214 
	C379.316895,605.812683 376.376831,606.100464 373.256836,606.391724 
z"/>
<path fill="#0E2247" opacity="1.000000" stroke="none" 
	d="
M431.213623,552.377197 
	C431.210419,551.995300 431.603516,551.995361 431.799988,551.997681 
	C431.996490,552.000000 432.000000,552.000000 432.108276,552.220093 
	C432.412903,552.715759 432.672272,552.904785 432.994720,553.007324 
	C435.610077,560.950012 438.339233,568.858093 440.777100,576.854858 
	C441.593109,579.531494 444.080353,582.775940 439.319824,584.933838 
	C439.334747,583.270447 440.446655,581.356262 440.010895,579.907715 
	C437.271057,570.800537 434.187073,561.796875 431.213623,552.377197 
z"/>
<path fill="#08183E" opacity="1.000000" stroke="none" 
	d="
M370.693054,676.581421 
	C360.659607,678.571411 350.339355,680.300781 339.592773,682.051514 
	C339.959198,681.395691 340.673767,680.263733 341.556824,680.111938 
	C350.009979,678.658508 358.487244,677.341431 366.970459,676.071472 
	C368.078430,675.905579 369.259247,676.225830 370.693054,676.581421 
z"/>
<path fill="#0E2247" opacity="1.000000" stroke="none" 
	d="
M406.081390,731.775879 
	C414.457642,734.565491 422.892822,737.681702 431.669525,740.949829 
	C430.347717,741.068787 428.500153,741.499512 427.052246,740.924316 
	C420.022827,738.131653 413.100525,735.069336 406.081390,731.775879 
z"/>
<path fill="#0B1F43" opacity="1.000000" stroke="none" 
	d="
M521.401794,750.937134 
	C520.999023,750.573486 521.000488,750.165527 520.998901,749.451538 
	C529.181152,747.409668 537.366333,745.673889 545.838501,743.744690 
	C545.164246,744.502686 544.342651,746.042908 543.218933,746.309631 
	C536.118591,747.994568 528.951233,749.397095 521.401794,750.937134 
z"/>
<path fill="#0B1F43" opacity="1.000000" stroke="none" 
	d="
M288.046997,587.321289 
	C290.395721,595.306946 292.719452,603.731079 295.100952,612.555359 
	C292.779785,604.556946 290.400909,596.158264 288.046997,587.321289 
z"/>
<path fill="#0B1F43" opacity="1.000000" stroke="none" 
	d="
M291.320831,499.121704 
	C290.358612,505.604095 289.056763,512.167236 287.412964,518.923584 
	C288.374390,512.478699 289.677795,505.840546 291.320831,499.121704 
z"/>
<path fill="#0E2247" opacity="1.000000" stroke="none" 
	d="
M424.231476,590.893311 
	C428.618744,588.927124 433.432617,587.005859 438.611115,585.016052 
	C435.280487,589.519104 430.055450,590.434631 424.231476,590.893311 
z"/>
<path fill="#0B1F43" opacity="1.000000" stroke="none" 
	d="
M287.047882,581.293579 
	C287.414520,582.691650 287.752869,584.506836 288.118500,586.644287 
	C287.770386,585.214600 287.395020,583.462646 287.047882,581.293579 
z"/>
<path fill="#0B1F43" opacity="1.000000" stroke="none" 
	d="
M546.778503,743.216431 
	C546.686829,742.808044 546.798279,742.574341 547.013550,742.176147 
	C547.071838,742.471436 547.026611,742.931213 546.778503,743.216431 
z"/>
<path fill="#0B1F43" opacity="1.000000" stroke="none" 
	d="
M295.075836,613.193542 
	C295.402222,613.352722 295.722870,613.836243 296.103882,614.634766 
	C295.799500,614.472412 295.434814,613.995178 295.075836,613.193542 
z"/>
<path fill="#0B1F43" opacity="1.000000" stroke="none" 
	d="
M432.892883,552.783447 
	C432.672272,552.904785 432.412903,552.715759 432.108521,552.221313 
	C432.332275,552.091187 432.595795,552.276855 432.892883,552.783447 
z"/>
<path fill="#0B1F43" opacity="1.000000" stroke="none" 
	d="
M296.160278,615.104248 
	C296.371002,615.028137 296.682098,615.210083 297.092834,615.648926 
	C296.881836,615.724670 296.571228,615.543518 296.160278,615.104248 
z"/>
<path fill="#0E2247" opacity="1.000000" stroke="none" 
	d="
M423.256622,591.876221 
	C423.033875,592.013062 423.013153,591.535278 423.006287,591.296265 
	C422.999451,591.057251 423.405090,590.807739 423.643127,590.803040 
	C423.747223,591.112061 423.613312,591.425781 423.256622,591.876221 
z"/>
</svg>